<?xml version="1.0" encoding="utf-8" standalone="no"?>
<!DOCTYPE svg PUBLIC "-//W3C//DTD SVG 1.1//EN"
  "http://www.w3.org/Graphics/SVG/1.1/DTD/svg11.dtd">
<svg xmlns:xlink="http://www.w3.org/1999/xlink" width="1080pt" height="576pt" viewBox="0 0 1080 576" xmlns="http://www.w3.org/2000/svg" version="1.1">
 <metadata>
  <rdf:RDF xmlns:dc="http://purl.org/dc/elements/1.1/" xmlns:cc="http://creativecommons.org/ns#" xmlns:rdf="http://www.w3.org/1999/02/22-rdf-syntax-ns#">
   <cc:Work>
    <dc:type rdf:resource="http://purl.org/dc/dcmitype/StillImage"/>
    <dc:date>2025-04-22T02:48:58.190664</dc:date>
    <dc:format>image/svg+xml</dc:format>
    <dc:creator>
     <cc:Agent>
      <dc:title>Matplotlib v3.9.2, https://matplotlib.org/</dc:title>
     </cc:Agent>
    </dc:creator>
   </cc:Work>
  </rdf:RDF>
 </metadata>
 <defs>
  <style type="text/css">*{stroke-linejoin: round; stroke-linecap: butt}</style>
 </defs>
 <g id="figure_1">
  <g id="patch_1">
   <path d="M 0 576 
L 1080 576 
L 1080 0 
L 0 0 
z
" style="fill: #ffffff"/>
  </g>
  <g id="axes_1">
   <g id="patch_2">
    <path d="M 53.435 510.965041 
L 1069.2 510.965041 
L 1069.2 29.97375 
L 53.435 29.97375 
z
" style="fill: #ffffff"/>
   </g>
   <g id="matplotlib.axis_1">
    <g id="xtick_1">
     <g id="line2d_1">
      <path d="M 154.821104 510.965041 
L 154.821104 29.97375 
" clip-path="url(#p56475ffb0a)" style="fill: none; stroke-dasharray: 0.8,1.32; stroke-dashoffset: 0; stroke: #b0b0b0; stroke-opacity: 0.6; stroke-width: 0.8"/>
     </g>
     <g id="line2d_2">
      <defs>
       <path id="m7f7758a736" d="M 0 0 
L 0 3.5 
" style="stroke: #000000; stroke-width: 0.8"/>
      </defs>
      <g>
       <use xlink:href="#m7f7758a736" x="154.821104" y="510.965041" style="stroke: #000000; stroke-width: 0.8"/>
      </g>
     </g>
     <g id="text_1">
      <!-- 2024-03-01 -->
      <g transform="translate(110.894833 548.918965) rotate(-30) scale(0.1 -0.1)">
       <defs>
        <path id="SimHei-32" d="M 300 250 
Q 325 625 650 925 
Q 975 1225 1475 1862 
Q 1975 2500 2125 2850 
Q 2275 3200 2237 3450 
Q 2200 3700 2000 3862 
Q 1800 4025 1537 4000 
Q 1275 3975 1037 3800 
Q 800 3625 675 3275 
L 200 3350 
Q 400 3925 712 4187 
Q 1025 4450 1450 4475 
Q 1700 4500 1900 4462 
Q 2100 4425 2312 4287 
Q 2525 4150 2662 3875 
Q 2800 3600 2762 3212 
Q 2725 2825 2375 2287 
Q 2025 1750 1025 600 
L 2825 600 
L 2825 150 
L 300 150 
L 300 250 
z
" transform="scale(0.015625)"/>
        <path id="SimHei-30" d="M 225 2537 
Q 250 3200 412 3587 
Q 575 3975 875 4225 
Q 1175 4475 1612 4475 
Q 2050 4475 2375 4112 
Q 2700 3750 2800 3200 
Q 2900 2650 2862 1937 
Q 2825 1225 2612 775 
Q 2400 325 1975 150 
Q 1550 -25 1125 187 
Q 700 400 525 750 
Q 350 1100 275 1487 
Q 200 1875 225 2537 
z
M 750 2687 
Q 675 2000 800 1462 
Q 925 925 1212 700 
Q 1500 475 1800 612 
Q 2100 750 2237 1162 
Q 2375 1575 2375 2062 
Q 2375 2550 2337 2950 
Q 2300 3350 2112 3675 
Q 1925 4000 1612 4012 
Q 1300 4025 1062 3700 
Q 825 3375 750 2687 
z
" transform="scale(0.015625)"/>
        <path id="SimHei-34" d="M 2000 1100 
L 75 1100 
L 75 1525 
L 2100 4450 
L 2475 4450 
L 2475 1525 
L 3075 1525 
L 3075 1100 
L 2475 1100 
L 2475 150 
L 2000 150 
L 2000 1100 
z
M 2000 1525 
L 2000 3500 
L 600 1525 
L 2000 1525 
z
" transform="scale(0.015625)"/>
        <path id="SimHei-2d" d="M 2975 2125 
L 125 2125 
L 125 2525 
L 2975 2525 
L 2975 2125 
z
" transform="scale(0.015625)"/>
        <path id="SimHei-33" d="M 250 1225 
L 700 1300 
Q 800 975 1025 762 
Q 1250 550 1587 562 
Q 1925 575 2125 837 
Q 2325 1100 2300 1437 
Q 2275 1775 2037 1962 
Q 1800 2150 1275 2225 
L 1275 2550 
Q 1800 2600 2037 2825 
Q 2275 3050 2250 3412 
Q 2225 3775 1925 3937 
Q 1625 4100 1287 3975 
Q 950 3850 750 3275 
L 300 3350 
Q 450 3800 712 4100 
Q 975 4400 1425 4450 
Q 1875 4500 2212 4337 
Q 2550 4175 2687 3837 
Q 2825 3500 2725 3100 
Q 2625 2700 2150 2400 
Q 2500 2250 2687 1950 
Q 2875 1650 2812 1162 
Q 2750 675 2375 375 
Q 2000 75 1525 87 
Q 1050 100 700 387 
Q 350 675 250 1225 
z
" transform="scale(0.015625)"/>
        <path id="SimHei-31" d="M 1400 3600 
Q 1075 3275 575 2975 
L 575 3450 
Q 1200 3875 1600 4450 
L 1900 4450 
L 1900 150 
L 1400 150 
L 1400 3600 
z
" transform="scale(0.015625)"/>
       </defs>
       <use xlink:href="#SimHei-32"/>
       <use xlink:href="#SimHei-30" x="50"/>
       <use xlink:href="#SimHei-32" x="100"/>
       <use xlink:href="#SimHei-34" x="150"/>
       <use xlink:href="#SimHei-2d" x="200"/>
       <use xlink:href="#SimHei-30" x="250"/>
       <use xlink:href="#SimHei-33" x="300"/>
       <use xlink:href="#SimHei-2d" x="350"/>
       <use xlink:href="#SimHei-30" x="400"/>
       <use xlink:href="#SimHei-31" x="450"/>
      </g>
     </g>
    </g>
    <g id="xtick_2">
     <g id="line2d_3">
      <path d="M 270.962931 510.965041 
L 270.962931 29.97375 
" clip-path="url(#p56475ffb0a)" style="fill: none; stroke-dasharray: 0.8,1.32; stroke-dashoffset: 0; stroke: #b0b0b0; stroke-opacity: 0.6; stroke-width: 0.8"/>
     </g>
     <g id="line2d_4">
      <g>
       <use xlink:href="#m7f7758a736" x="270.962931" y="510.965041" style="stroke: #000000; stroke-width: 0.8"/>
      </g>
     </g>
     <g id="text_2">
      <!-- 2024-05-01 -->
      <g transform="translate(227.036661 548.918965) rotate(-30) scale(0.1 -0.1)">
       <defs>
        <path id="SimHei-35" d="M 550 1325 
Q 725 650 1150 575 
Q 1575 500 1837 662 
Q 2100 825 2212 1087 
Q 2325 1350 2312 1675 
Q 2300 2000 2137 2225 
Q 1975 2450 1725 2525 
Q 1475 2600 1162 2525 
Q 850 2450 650 2175 
L 225 2225 
Q 275 2375 700 4375 
L 2675 4375 
L 2675 3925 
L 1075 3925 
Q 950 3250 825 2850 
Q 1200 3025 1525 3012 
Q 1850 3000 2150 2862 
Q 2450 2725 2587 2487 
Q 2725 2250 2787 2012 
Q 2850 1775 2837 1500 
Q 2825 1225 2725 937 
Q 2625 650 2425 462 
Q 2225 275 1937 162 
Q 1650 50 1275 75 
Q 900 100 562 350 
Q 225 600 100 1200 
L 550 1325 
z
" transform="scale(0.015625)"/>
       </defs>
       <use xlink:href="#SimHei-32"/>
       <use xlink:href="#SimHei-30" x="50"/>
       <use xlink:href="#SimHei-32" x="100"/>
       <use xlink:href="#SimHei-34" x="150"/>
       <use xlink:href="#SimHei-2d" x="200"/>
       <use xlink:href="#SimHei-30" x="250"/>
       <use xlink:href="#SimHei-35" x="300"/>
       <use xlink:href="#SimHei-2d" x="350"/>
       <use xlink:href="#SimHei-30" x="400"/>
       <use xlink:href="#SimHei-31" x="450"/>
      </g>
     </g>
    </g>
    <g id="xtick_3">
     <g id="line2d_5">
      <path d="M 387.104759 510.965041 
L 387.104759 29.97375 
" clip-path="url(#p56475ffb0a)" style="fill: none; stroke-dasharray: 0.8,1.32; stroke-dashoffset: 0; stroke: #b0b0b0; stroke-opacity: 0.6; stroke-width: 0.8"/>
     </g>
     <g id="line2d_6">
      <g>
       <use xlink:href="#m7f7758a736" x="387.104759" y="510.965041" style="stroke: #000000; stroke-width: 0.8"/>
      </g>
     </g>
     <g id="text_3">
      <!-- 2024-07-01 -->
      <g transform="translate(343.178488 548.918965) rotate(-30) scale(0.1 -0.1)">
       <defs>
        <path id="SimHei-37" d="M 850 150 
Q 1300 2050 2425 3925 
L 275 3925 
L 275 4375 
L 2950 4375 
L 2950 3950 
Q 1775 2050 1400 150 
L 850 150 
z
" transform="scale(0.015625)"/>
       </defs>
       <use xlink:href="#SimHei-32"/>
       <use xlink:href="#SimHei-30" x="50"/>
       <use xlink:href="#SimHei-32" x="100"/>
       <use xlink:href="#SimHei-34" x="150"/>
       <use xlink:href="#SimHei-2d" x="200"/>
       <use xlink:href="#SimHei-30" x="250"/>
       <use xlink:href="#SimHei-37" x="300"/>
       <use xlink:href="#SimHei-2d" x="350"/>
       <use xlink:href="#SimHei-30" x="400"/>
       <use xlink:href="#SimHei-31" x="450"/>
      </g>
     </g>
    </g>
    <g id="xtick_4">
     <g id="line2d_7">
      <path d="M 505.150551 510.965041 
L 505.150551 29.97375 
" clip-path="url(#p56475ffb0a)" style="fill: none; stroke-dasharray: 0.8,1.32; stroke-dashoffset: 0; stroke: #b0b0b0; stroke-opacity: 0.6; stroke-width: 0.8"/>
     </g>
     <g id="line2d_8">
      <g>
       <use xlink:href="#m7f7758a736" x="505.150551" y="510.965041" style="stroke: #000000; stroke-width: 0.8"/>
      </g>
     </g>
     <g id="text_4">
      <!-- 2024-09-01 -->
      <g transform="translate(461.22428 548.918965) rotate(-30) scale(0.1 -0.1)">
       <defs>
        <path id="SimHei-39" d="M 800 75 
Q 1350 1000 1700 1750 
Q 1075 1650 662 1912 
Q 250 2175 162 2625 
Q 75 3075 175 3437 
Q 275 3800 487 4037 
Q 700 4275 1000 4375 
Q 1300 4475 1537 4475 
Q 1775 4475 2025 4375 
Q 2275 4275 2475 4075 
Q 2675 3875 2750 3662 
Q 2825 3450 2825 3112 
Q 2825 2775 2575 2250 
Q 2325 1725 1350 75 
L 800 75 
z
M 662 2875 
Q 700 2550 937 2337 
Q 1175 2125 1450 2150 
Q 1725 2175 1887 2300 
Q 2050 2425 2200 2725 
Q 2300 3100 2250 3362 
Q 2200 3625 1987 3800 
Q 1775 3975 1525 3975 
Q 1375 4000 1137 3900 
Q 900 3800 762 3500 
Q 625 3200 662 2875 
z
" transform="scale(0.015625)"/>
       </defs>
       <use xlink:href="#SimHei-32"/>
       <use xlink:href="#SimHei-30" x="50"/>
       <use xlink:href="#SimHei-32" x="100"/>
       <use xlink:href="#SimHei-34" x="150"/>
       <use xlink:href="#SimHei-2d" x="200"/>
       <use xlink:href="#SimHei-30" x="250"/>
       <use xlink:href="#SimHei-39" x="300"/>
       <use xlink:href="#SimHei-2d" x="350"/>
       <use xlink:href="#SimHei-30" x="400"/>
       <use xlink:href="#SimHei-31" x="450"/>
      </g>
     </g>
    </g>
    <g id="xtick_5">
     <g id="line2d_9">
      <path d="M 621.292378 510.965041 
L 621.292378 29.97375 
" clip-path="url(#p56475ffb0a)" style="fill: none; stroke-dasharray: 0.8,1.32; stroke-dashoffset: 0; stroke: #b0b0b0; stroke-opacity: 0.6; stroke-width: 0.8"/>
     </g>
     <g id="line2d_10">
      <g>
       <use xlink:href="#m7f7758a736" x="621.292378" y="510.965041" style="stroke: #000000; stroke-width: 0.8"/>
      </g>
     </g>
     <g id="text_5">
      <!-- 2024-11-01 -->
      <g transform="translate(577.366108 548.918965) rotate(-30) scale(0.1 -0.1)">
       <use xlink:href="#SimHei-32"/>
       <use xlink:href="#SimHei-30" x="50"/>
       <use xlink:href="#SimHei-32" x="100"/>
       <use xlink:href="#SimHei-34" x="150"/>
       <use xlink:href="#SimHei-2d" x="200"/>
       <use xlink:href="#SimHei-31" x="250"/>
       <use xlink:href="#SimHei-31" x="300"/>
       <use xlink:href="#SimHei-2d" x="350"/>
       <use xlink:href="#SimHei-30" x="400"/>
       <use xlink:href="#SimHei-31" x="450"/>
      </g>
     </g>
    </g>
    <g id="xtick_6">
     <g id="line2d_11">
      <path d="M 737.434206 510.965041 
L 737.434206 29.97375 
" clip-path="url(#p56475ffb0a)" style="fill: none; stroke-dasharray: 0.8,1.32; stroke-dashoffset: 0; stroke: #b0b0b0; stroke-opacity: 0.6; stroke-width: 0.8"/>
     </g>
     <g id="line2d_12">
      <g>
       <use xlink:href="#m7f7758a736" x="737.434206" y="510.965041" style="stroke: #000000; stroke-width: 0.8"/>
      </g>
     </g>
     <g id="text_6">
      <!-- 2025-01-01 -->
      <g transform="translate(693.507936 548.918965) rotate(-30) scale(0.1 -0.1)">
       <use xlink:href="#SimHei-32"/>
       <use xlink:href="#SimHei-30" x="50"/>
       <use xlink:href="#SimHei-32" x="100"/>
       <use xlink:href="#SimHei-35" x="150"/>
       <use xlink:href="#SimHei-2d" x="200"/>
       <use xlink:href="#SimHei-30" x="250"/>
       <use xlink:href="#SimHei-31" x="300"/>
       <use xlink:href="#SimHei-2d" x="350"/>
       <use xlink:href="#SimHei-30" x="400"/>
       <use xlink:href="#SimHei-31" x="450"/>
      </g>
     </g>
    </g>
    <g id="xtick_7">
     <g id="line2d_13">
      <path d="M 849.768104 510.965041 
L 849.768104 29.97375 
" clip-path="url(#p56475ffb0a)" style="fill: none; stroke-dasharray: 0.8,1.32; stroke-dashoffset: 0; stroke: #b0b0b0; stroke-opacity: 0.6; stroke-width: 0.8"/>
     </g>
     <g id="line2d_14">
      <g>
       <use xlink:href="#m7f7758a736" x="849.768104" y="510.965041" style="stroke: #000000; stroke-width: 0.8"/>
      </g>
     </g>
     <g id="text_7">
      <!-- 2025-03-01 -->
      <g transform="translate(805.841834 548.918965) rotate(-30) scale(0.1 -0.1)">
       <use xlink:href="#SimHei-32"/>
       <use xlink:href="#SimHei-30" x="50"/>
       <use xlink:href="#SimHei-32" x="100"/>
       <use xlink:href="#SimHei-35" x="150"/>
       <use xlink:href="#SimHei-2d" x="200"/>
       <use xlink:href="#SimHei-30" x="250"/>
       <use xlink:href="#SimHei-33" x="300"/>
       <use xlink:href="#SimHei-2d" x="350"/>
       <use xlink:href="#SimHei-30" x="400"/>
       <use xlink:href="#SimHei-31" x="450"/>
      </g>
     </g>
    </g>
    <g id="xtick_8">
     <g id="line2d_15">
      <path d="M 965.909932 510.965041 
L 965.909932 29.97375 
" clip-path="url(#p56475ffb0a)" style="fill: none; stroke-dasharray: 0.8,1.32; stroke-dashoffset: 0; stroke: #b0b0b0; stroke-opacity: 0.6; stroke-width: 0.8"/>
     </g>
     <g id="line2d_16">
      <g>
       <use xlink:href="#m7f7758a736" x="965.909932" y="510.965041" style="stroke: #000000; stroke-width: 0.8"/>
      </g>
     </g>
     <g id="text_8">
      <!-- 2025-05-01 -->
      <g transform="translate(921.983662 548.918965) rotate(-30) scale(0.1 -0.1)">
       <use xlink:href="#SimHei-32"/>
       <use xlink:href="#SimHei-30" x="50"/>
       <use xlink:href="#SimHei-32" x="100"/>
       <use xlink:href="#SimHei-35" x="150"/>
       <use xlink:href="#SimHei-2d" x="200"/>
       <use xlink:href="#SimHei-30" x="250"/>
       <use xlink:href="#SimHei-35" x="300"/>
       <use xlink:href="#SimHei-2d" x="350"/>
       <use xlink:href="#SimHei-30" x="400"/>
       <use xlink:href="#SimHei-31" x="450"/>
      </g>
     </g>
    </g>
    <g id="text_9">
     <!-- 日期 -->
     <g transform="translate(549.3175 563.235872) scale(0.12 -0.12)">
      <defs>
       <path id="SimHei-65e5" d="M 5375 5000 
Q 5350 3775 5350 2275 
Q 5350 775 5375 -450 
L 4800 -450 
L 4800 175 
L 1800 175 
L 1800 -575 
L 1250 -575 
Q 1275 575 1275 2125 
Q 1275 3675 1250 5000 
L 5375 5000 
z
M 4800 600 
L 4800 2375 
L 1800 2375 
L 1800 600 
L 4800 600 
z
M 4800 2800 
L 4800 4550 
L 1800 4550 
L 1800 2800 
L 4800 2800 
z
" transform="scale(0.015625)"/>
       <path id="SimHei-671f" d="M 4900 -25 
Q 5475 -100 5425 175 
L 5425 1575 
L 4325 1575 
Q 4275 975 4050 425 
Q 3825 -125 3400 -600 
Q 3225 -375 2925 -275 
Q 3350 150 3562 625 
Q 3775 1100 3812 1575 
Q 3850 2050 3850 3125 
Q 3850 4225 3825 4875 
L 5950 4875 
Q 5925 4400 5925 3725 
L 5925 50 
Q 5925 -300 5700 -425 
Q 5475 -550 5100 -600 
Q 5100 -325 4900 -25 
z
M 950 4300 
Q 950 4675 925 5125 
L 1450 5125 
Q 1425 4625 1425 4300 
L 2550 4300 
Q 2550 4775 2525 5125 
L 3075 5125 
Q 3050 4700 3050 4300 
Q 3225 4300 3500 4325 
L 3500 3900 
Q 3250 3925 3050 3925 
L 3050 1550 
Q 3250 1550 3500 1575 
L 3500 1150 
Q 3025 1175 2575 1175 
L 1225 1175 
Q 675 1175 275 1150 
L 275 1575 
Q 650 1550 950 1550 
L 950 3925 
Q 725 3925 425 3900 
L 425 4325 
Q 700 4300 950 4300 
z
M 5425 3375 
L 5425 4500 
L 4350 4500 
L 4350 3375 
L 5425 3375 
z
M 5425 1950 
L 5425 3000 
L 4350 3000 
L 4350 1950 
L 5425 1950 
z
M 1600 725 
Q 1425 650 1162 287 
Q 900 -75 650 -350 
Q 400 -175 225 -75 
Q 450 100 700 412 
Q 950 725 1100 1025 
L 1600 725 
z
M 2550 3375 
L 2550 3925 
L 1425 3925 
L 1425 3375 
L 2550 3375 
z
M 2550 1550 
L 2550 2100 
L 1425 2100 
L 1425 1550 
L 2550 1550 
z
M 2550 2475 
L 2550 3000 
L 1425 3000 
L 1425 2475 
L 2550 2475 
z
M 2850 -75 
Q 2450 525 2225 725 
Q 2375 825 2550 1025 
Q 2850 725 3250 275 
Q 3050 125 2850 -75 
z
" transform="scale(0.015625)"/>
      </defs>
      <use xlink:href="#SimHei-65e5"/>
      <use xlink:href="#SimHei-671f" x="100"/>
     </g>
    </g>
   </g>
   <g id="matplotlib.axis_2">
    <g id="ytick_1">
     <g id="line2d_17">
      <path d="M 53.435 510.965041 
L 1069.2 510.965041 
" clip-path="url(#p56475ffb0a)" style="fill: none; stroke-dasharray: 0.8,1.32; stroke-dashoffset: 0; stroke: #b0b0b0; stroke-opacity: 0.6; stroke-width: 0.8"/>
     </g>
     <g id="line2d_18">
      <defs>
       <path id="mcc13a94f9c" d="M 0 0 
L -3.5 0 
" style="stroke: #000000; stroke-width: 0.8"/>
      </defs>
      <g>
       <use xlink:href="#mcc13a94f9c" x="53.435" y="510.965041" style="stroke: #000000; stroke-width: 0.8"/>
      </g>
     </g>
     <g id="text_10">
      <!-- -0.4 -->
      <g transform="translate(26.435 514.402541) scale(0.1 -0.1)">
       <defs>
        <path id="SimHei-2e" d="M 1075 125 
L 500 125 
L 500 675 
L 1075 675 
L 1075 125 
z
" transform="scale(0.015625)"/>
       </defs>
       <use xlink:href="#SimHei-2d"/>
       <use xlink:href="#SimHei-30" x="50"/>
       <use xlink:href="#SimHei-2e" x="100"/>
       <use xlink:href="#SimHei-34" x="150"/>
      </g>
     </g>
    </g>
    <g id="ytick_2">
     <g id="line2d_19">
      <path d="M 53.435 447.043853 
L 1069.2 447.043853 
" clip-path="url(#p56475ffb0a)" style="fill: none; stroke-dasharray: 0.8,1.32; stroke-dashoffset: 0; stroke: #b0b0b0; stroke-opacity: 0.6; stroke-width: 0.8"/>
     </g>
     <g id="line2d_20">
      <g>
       <use xlink:href="#mcc13a94f9c" x="53.435" y="447.043853" style="stroke: #000000; stroke-width: 0.8"/>
      </g>
     </g>
     <g id="text_11">
      <!-- -0.3 -->
      <g transform="translate(26.435 450.481353) scale(0.1 -0.1)">
       <use xlink:href="#SimHei-2d"/>
       <use xlink:href="#SimHei-30" x="50"/>
       <use xlink:href="#SimHei-2e" x="100"/>
       <use xlink:href="#SimHei-33" x="150"/>
      </g>
     </g>
    </g>
    <g id="ytick_3">
     <g id="line2d_21">
      <path d="M 53.435 383.122666 
L 1069.2 383.122666 
" clip-path="url(#p56475ffb0a)" style="fill: none; stroke-dasharray: 0.8,1.32; stroke-dashoffset: 0; stroke: #b0b0b0; stroke-opacity: 0.6; stroke-width: 0.8"/>
     </g>
     <g id="line2d_22">
      <g>
       <use xlink:href="#mcc13a94f9c" x="53.435" y="383.122666" style="stroke: #000000; stroke-width: 0.8"/>
      </g>
     </g>
     <g id="text_12">
      <!-- -0.2 -->
      <g transform="translate(26.435 386.560166) scale(0.1 -0.1)">
       <use xlink:href="#SimHei-2d"/>
       <use xlink:href="#SimHei-30" x="50"/>
       <use xlink:href="#SimHei-2e" x="100"/>
       <use xlink:href="#SimHei-32" x="150"/>
      </g>
     </g>
    </g>
    <g id="ytick_4">
     <g id="line2d_23">
      <path d="M 53.435 319.201478 
L 1069.2 319.201478 
" clip-path="url(#p56475ffb0a)" style="fill: none; stroke-dasharray: 0.8,1.32; stroke-dashoffset: 0; stroke: #b0b0b0; stroke-opacity: 0.6; stroke-width: 0.8"/>
     </g>
     <g id="line2d_24">
      <g>
       <use xlink:href="#mcc13a94f9c" x="53.435" y="319.201478" style="stroke: #000000; stroke-width: 0.8"/>
      </g>
     </g>
     <g id="text_13">
      <!-- -0.1 -->
      <g transform="translate(26.435 322.638978) scale(0.1 -0.1)">
       <use xlink:href="#SimHei-2d"/>
       <use xlink:href="#SimHei-30" x="50"/>
       <use xlink:href="#SimHei-2e" x="100"/>
       <use xlink:href="#SimHei-31" x="150"/>
      </g>
     </g>
    </g>
    <g id="ytick_5">
     <g id="line2d_25">
      <path d="M 53.435 255.280291 
L 1069.2 255.280291 
" clip-path="url(#p56475ffb0a)" style="fill: none; stroke-dasharray: 0.8,1.32; stroke-dashoffset: 0; stroke: #b0b0b0; stroke-opacity: 0.6; stroke-width: 0.8"/>
     </g>
     <g id="line2d_26">
      <g>
       <use xlink:href="#mcc13a94f9c" x="53.435" y="255.280291" style="stroke: #000000; stroke-width: 0.8"/>
      </g>
     </g>
     <g id="text_14">
      <!-- 0.0 -->
      <g transform="translate(31.435 258.717791) scale(0.1 -0.1)">
       <use xlink:href="#SimHei-30"/>
       <use xlink:href="#SimHei-2e" x="50"/>
       <use xlink:href="#SimHei-30" x="100"/>
      </g>
     </g>
    </g>
    <g id="ytick_6">
     <g id="line2d_27">
      <path d="M 53.435 191.359104 
L 1069.2 191.359104 
" clip-path="url(#p56475ffb0a)" style="fill: none; stroke-dasharray: 0.8,1.32; stroke-dashoffset: 0; stroke: #b0b0b0; stroke-opacity: 0.6; stroke-width: 0.8"/>
     </g>
     <g id="line2d_28">
      <g>
       <use xlink:href="#mcc13a94f9c" x="53.435" y="191.359104" style="stroke: #000000; stroke-width: 0.8"/>
      </g>
     </g>
     <g id="text_15">
      <!-- 0.1 -->
      <g transform="translate(31.435 194.796604) scale(0.1 -0.1)">
       <use xlink:href="#SimHei-30"/>
       <use xlink:href="#SimHei-2e" x="50"/>
       <use xlink:href="#SimHei-31" x="100"/>
      </g>
     </g>
    </g>
    <g id="ytick_7">
     <g id="line2d_29">
      <path d="M 53.435 127.437916 
L 1069.2 127.437916 
" clip-path="url(#p56475ffb0a)" style="fill: none; stroke-dasharray: 0.8,1.32; stroke-dashoffset: 0; stroke: #b0b0b0; stroke-opacity: 0.6; stroke-width: 0.8"/>
     </g>
     <g id="line2d_30">
      <g>
       <use xlink:href="#mcc13a94f9c" x="53.435" y="127.437916" style="stroke: #000000; stroke-width: 0.8"/>
      </g>
     </g>
     <g id="text_16">
      <!-- 0.2 -->
      <g transform="translate(31.435 130.875416) scale(0.1 -0.1)">
       <use xlink:href="#SimHei-30"/>
       <use xlink:href="#SimHei-2e" x="50"/>
       <use xlink:href="#SimHei-32" x="100"/>
      </g>
     </g>
    </g>
    <g id="ytick_8">
     <g id="line2d_31">
      <path d="M 53.435 63.516729 
L 1069.2 63.516729 
" clip-path="url(#p56475ffb0a)" style="fill: none; stroke-dasharray: 0.8,1.32; stroke-dashoffset: 0; stroke: #b0b0b0; stroke-opacity: 0.6; stroke-width: 0.8"/>
     </g>
     <g id="line2d_32">
      <g>
       <use xlink:href="#mcc13a94f9c" x="53.435" y="63.516729" style="stroke: #000000; stroke-width: 0.8"/>
      </g>
     </g>
     <g id="text_17">
      <!-- 0.3 -->
      <g transform="translate(31.435 66.954229) scale(0.1 -0.1)">
       <use xlink:href="#SimHei-30"/>
       <use xlink:href="#SimHei-2e" x="50"/>
       <use xlink:href="#SimHei-33" x="100"/>
      </g>
     </g>
    </g>
    <g id="text_18">
     <!-- 平均加权情感得分 -->
     <g transform="translate(20.935 318.469395) rotate(-90) scale(0.12 -0.12)">
      <defs>
       <path id="SimHei-5e73" d="M 4525 4825 
Q 4900 4825 5450 4850 
L 5450 4375 
Q 4925 4400 4525 4400 
L 3475 4400 
L 3475 2025 
L 5000 2025 
Q 5550 2025 6025 2050 
L 6025 1575 
Q 5550 1600 5000 1600 
L 3475 1600 
L 3475 450 
Q 3475 -100 3500 -600 
L 2925 -600 
Q 2950 -100 2950 450 
L 2950 1600 
L 1125 1600 
Q 775 1600 375 1575 
L 375 2050 
Q 775 2025 1175 2025 
L 2950 2025 
L 2950 4400 
L 1775 4400 
Q 1400 4400 875 4375 
L 875 4850 
Q 1400 4825 1750 4825 
L 4525 4825 
z
M 3925 2600 
Q 4500 3300 4900 4125 
Q 5150 3950 5400 3825 
Q 4775 2850 4350 2300 
Q 4150 2475 3925 2600 
z
M 1975 2350 
Q 1600 3100 1050 3725 
Q 1250 3875 1450 4050 
Q 2075 3300 2450 2725 
Q 2150 2500 1975 2350 
z
" transform="scale(0.015625)"/>
       <path id="SimHei-5747" d="M 5775 275 
Q 5775 -325 5362 -450 
Q 4950 -575 4425 -600 
Q 4375 -275 4250 25 
Q 4950 -25 5125 62 
Q 5300 150 5300 500 
L 5375 3700 
L 3550 3700 
Q 3425 3375 3262 3037 
Q 3100 2700 2925 2400 
Q 2675 2550 2475 2625 
Q 3150 3625 3500 5200 
Q 3800 5100 4075 5025 
Q 3975 4875 3875 4650 
Q 3775 4425 3675 4125 
L 5900 4125 
L 5775 275 
z
M 1250 3625 
L 1250 4375 
Q 1250 4775 1225 5100 
L 1775 5100 
Q 1750 4725 1750 4375 
L 1750 3625 
L 1900 3625 
Q 2200 3625 2525 3650 
L 2525 3150 
Q 2200 3175 1900 3175 
L 1750 3175 
L 1750 1100 
L 2500 1375 
Q 2475 1125 2525 900 
Q 1225 475 962 362 
Q 700 250 475 150 
Q 375 475 250 750 
Q 575 800 800 850 
Q 1025 900 1250 975 
L 1250 3175 
L 1125 3175 
Q 850 3175 400 3150 
L 400 3650 
Q 850 3625 1100 3625 
L 1250 3625 
z
M 4950 1625 
Q 4675 1425 4137 1050 
Q 3600 675 3175 300 
Q 3000 575 2850 775 
Q 3350 1050 3762 1325 
Q 4175 1600 4775 2075 
Q 4825 1850 4950 1625 
z
M 3775 3150 
Q 4125 2800 4475 2300 
Q 4250 2125 4100 1975 
Q 3900 2325 3450 2825 
Q 3600 3000 3775 3150 
z
" transform="scale(0.015625)"/>
       <path id="SimHei-52a0" d="M 5700 4150 
Q 5675 3625 5675 3100 
L 5675 900 
Q 5675 300 5700 -350 
L 5225 -350 
L 5225 225 
L 4150 225 
L 4150 -475 
L 3675 -475 
Q 3700 25 3700 550 
L 3700 3100 
Q 3700 3600 3675 4150 
L 5700 4150 
z
M 3125 225 
Q 3050 -250 2725 -337 
Q 2400 -425 2025 -450 
Q 2025 -225 1875 125 
Q 2300 100 2475 137 
Q 2650 175 2675 425 
L 2850 3425 
L 1975 3425 
Q 1925 2450 1812 1875 
Q 1700 1300 1562 875 
Q 1425 450 1187 37 
Q 950 -375 775 -600 
Q 600 -400 275 -250 
Q 750 225 987 787 
Q 1225 1350 1312 1837 
Q 1400 2325 1425 2637 
Q 1450 2950 1475 3425 
L 1125 3425 
Q 850 3425 550 3400 
L 550 3900 
Q 825 3850 1175 3850 
L 1500 3850 
Q 1525 4375 1525 4475 
Q 1525 4600 1500 5075 
Q 1775 5050 2125 5025 
Q 2075 4825 2050 4600 
Q 2025 4375 2000 3850 
L 3350 3850 
Q 3325 3650 3325 3425 
L 3125 225 
z
M 5225 725 
L 5225 3700 
L 4150 3700 
L 4150 725 
L 5225 725 
z
" transform="scale(0.015625)"/>
       <path id="SimHei-6743" d="M 2700 4575 
Q 3250 4550 3725 4550 
L 5675 4550 
Q 5575 3500 5337 2737 
Q 5100 1975 4475 1075 
Q 4775 675 5200 425 
Q 5625 175 6175 0 
Q 5825 -275 5750 -500 
Q 5175 -225 4775 100 
Q 4375 425 4150 725 
Q 3825 350 3475 62 
Q 3125 -225 2500 -600 
Q 2400 -350 2100 -125 
Q 2475 0 2950 275 
Q 3425 550 3850 1075 
Q 3625 1375 3400 2037 
Q 3175 2700 3050 4125 
L 2700 4125 
L 2700 4575 
z
M 200 1350 
Q 575 1750 825 2275 
Q 1075 2800 1250 3450 
Q 825 3450 425 3425 
L 425 3875 
Q 875 3850 1325 3850 
Q 1325 4900 1300 5250 
L 1850 5250 
Q 1800 4950 1800 3850 
Q 2175 3850 2600 3875 
L 2600 3425 
Q 2175 3450 1800 3450 
L 1800 2525 
Q 1975 2625 2175 2775 
Q 2625 2175 2750 1875 
Q 2475 1725 2325 1575 
Q 2200 1925 1800 2375 
L 1800 525 
Q 1800 0 1825 -600 
L 1275 -600 
Q 1325 0 1325 525 
L 1325 2375 
Q 1125 1675 575 900 
Q 425 1225 200 1350 
z
M 3525 4150 
Q 3675 2850 3787 2412 
Q 3900 1975 4175 1475 
Q 4475 1925 4750 2587 
Q 5025 3250 5100 4150 
L 3525 4150 
z
" transform="scale(0.015625)"/>
       <path id="SimHei-60c5" d="M 2775 1475 
Q 2775 2050 2750 2525 
L 5600 2525 
Q 5575 2100 5575 1725 
L 5575 -150 
Q 5575 -425 5375 -500 
Q 5175 -575 4875 -625 
Q 4850 -400 4700 -150 
Q 5050 -150 5100 -75 
Q 5150 0 5150 475 
L 3225 475 
L 3225 -625 
L 2750 -625 
Q 2775 -50 2775 375 
L 2775 1475 
z
M 2375 3250 
Q 2975 3225 3475 3225 
L 3975 3225 
L 3975 3625 
L 3500 3625 
Q 3075 3625 2625 3600 
L 2625 4025 
Q 3075 4000 3500 4000 
L 3975 4000 
L 3975 4350 
L 3450 4350 
Q 3050 4350 2475 4325 
L 2475 4750 
Q 3075 4725 3450 4725 
L 3975 4725 
Q 3975 4975 3950 5225 
L 4475 5225 
Q 4450 4975 4450 4725 
L 5125 4725 
Q 5550 4725 5925 4750 
L 5925 4325 
Q 5550 4350 5125 4350 
L 4450 4350 
L 4450 4000 
L 4925 4000 
Q 5325 4000 5750 4025 
L 5750 3600 
Q 5300 3625 4925 3625 
L 4450 3625 
L 4450 3225 
L 5175 3225 
Q 5775 3225 6150 3250 
L 6150 2825 
Q 5775 2850 5150 2850 
L 3500 2850 
Q 2850 2850 2375 2825 
L 2375 3250 
z
M 1675 5225 
Q 1650 4800 1650 4400 
L 1650 425 
Q 1650 -100 1675 -600 
L 1150 -600 
Q 1200 -100 1200 425 
L 1200 4325 
Q 1200 4825 1150 5225 
L 1675 5225 
z
M 5125 850 
L 5125 1325 
L 3225 1325 
L 3225 850 
L 5125 850 
z
M 5125 1700 
L 5125 2150 
L 3225 2150 
L 3225 1700 
L 5125 1700 
z
M 1050 3900 
Q 1000 3675 725 2275 
Q 500 2350 250 2375 
Q 425 2750 575 3975 
Q 800 3925 1050 3900 
z
M 1975 3125 
Q 1925 3425 1775 3975 
Q 1950 4000 2200 4075 
Q 2350 3550 2450 3275 
Q 2175 3200 1975 3125 
z
" transform="scale(0.015625)"/>
       <path id="SimHei-611f" d="M 6125 1900 
Q 5900 1200 5725 1112 
Q 5550 1025 5237 1137 
Q 4925 1250 4425 1700 
Q 4125 1375 3725 1100 
Q 3550 1300 3350 1400 
Q 3875 1700 4175 2050 
Q 3900 2500 3762 3037 
Q 3625 3575 3575 4050 
L 1325 4050 
Q 1325 2925 1287 2525 
Q 1250 2125 1125 1775 
Q 1000 1425 750 1025 
Q 450 1225 275 1275 
Q 575 1650 712 2012 
Q 850 2375 875 2850 
Q 900 3325 875 4450 
L 3525 4450 
Q 3525 4650 3500 5175 
Q 3725 5125 4025 5100 
Q 3975 4800 4000 4450 
L 5100 4450 
Q 5450 4450 5925 4475 
L 5925 4025 
Q 5450 4050 5125 4050 
L 4025 4050 
Q 4125 3000 4450 2475 
Q 4600 2725 4725 3087 
Q 4850 3450 4925 3775 
Q 5175 3675 5450 3600 
Q 5350 3500 5187 3050 
Q 5025 2600 4725 2050 
Q 5000 1800 5212 1675 
Q 5425 1550 5487 1625 
Q 5550 1700 5650 2150 
Q 5850 1975 6125 1900 
z
M 3325 1600 
L 1575 1600 
L 1575 2875 
L 3325 2875 
L 3325 1600 
z
M 4875 175 
Q 4700 -325 4575 -412 
Q 4450 -500 4250 -500 
L 2350 -500 
Q 2025 -475 1962 -200 
Q 1900 75 1900 325 
Q 1900 575 1875 925 
L 2400 925 
Q 2375 500 2375 325 
Q 2375 175 2400 25 
Q 2425 -125 2725 -100 
L 3875 -100 
Q 4125 -100 4212 -12 
Q 4300 75 4350 450 
Q 4550 300 4875 175 
z
M 3300 3275 
L 1600 3275 
L 1600 3650 
L 3300 3650 
L 3300 3275 
z
M 5350 900 
Q 5900 225 6075 -50 
Q 5825 -200 5625 -350 
Q 5375 125 4950 600 
Q 5125 725 5350 900 
z
M 475 -175 
Q 700 100 975 925 
Q 1175 825 1450 725 
Q 1125 -25 950 -375 
Q 750 -275 475 -175 
z
M 2925 1950 
L 2925 2525 
L 1975 2525 
L 1975 1950 
L 2925 1950 
z
M 2725 1050 
Q 2875 1175 3100 1325 
Q 3525 775 3650 550 
Q 3450 425 3275 250 
Q 3125 525 2725 1050 
z
M 4900 4500 
Q 4750 4625 4350 4900 
Q 4500 5075 4600 5225 
Q 4775 5125 5200 4800 
Q 5050 4675 4900 4500 
z
" transform="scale(0.015625)"/>
       <path id="SimHei-5f97" d="M 5575 4975 
Q 5550 4625 5550 3950 
Q 5550 3300 5575 2900 
L 2675 2900 
Q 2700 3300 2700 3950 
Q 2700 4600 2675 4975 
L 5575 4975 
z
M 1950 1625 
Q 2400 1600 2950 1600 
L 4775 1600 
L 4775 2100 
L 3125 2100 
Q 2700 2100 2325 2075 
L 2325 2500 
Q 2700 2475 3125 2475 
L 5000 2475 
Q 5525 2475 5900 2500 
L 5900 2075 
Q 5575 2100 5225 2100 
L 5225 1600 
Q 5675 1600 6075 1625 
L 6075 1175 
Q 5700 1200 5225 1200 
L 5225 250 
Q 5250 -275 4950 -400 
Q 4650 -525 4175 -600 
Q 4125 -350 3975 -25 
Q 4550 -25 4675 62 
Q 4800 150 4775 425 
L 4775 1200 
L 2950 1200 
Q 2400 1200 1950 1175 
L 1950 1625 
z
M 1150 -550 
Q 1175 125 1175 575 
L 1175 2075 
Q 950 1825 625 1500 
Q 475 1750 275 1925 
Q 775 2300 1150 2775 
Q 1525 3250 1800 3775 
Q 2000 3600 2275 3450 
Q 2050 3150 1625 2575 
L 1625 575 
Q 1625 125 1650 -550 
L 1150 -550 
z
M 2150 4875 
Q 1450 4000 825 3375 
Q 675 3575 475 3750 
Q 1175 4325 1700 5200 
Q 1900 5025 2150 4875 
z
M 5100 3300 
L 5100 3775 
L 3150 3775 
L 3150 3300 
L 5100 3300 
z
M 5100 4150 
L 5100 4600 
L 3150 4600 
L 3150 4150 
L 5100 4150 
z
M 2950 1050 
Q 3325 525 3550 175 
Q 3375 75 3100 -125 
Q 2950 275 2575 750 
Q 2800 900 2950 1050 
z
" transform="scale(0.015625)"/>
       <path id="SimHei-5206" d="M 1000 -650 
Q 825 -375 575 -225 
Q 975 -75 1300 137 
Q 1625 350 1875 662 
Q 2125 975 2250 1350 
Q 2375 1725 2425 2275 
Q 1850 2275 1500 2250 
L 1500 2775 
Q 1900 2750 2525 2750 
L 5025 2750 
Q 4975 2375 4950 2100 
L 4750 250 
Q 4700 -200 4350 -350 
Q 4000 -500 3575 -525 
Q 3550 -275 3325 50 
Q 3850 25 4037 87 
Q 4225 150 4275 525 
L 4450 2275 
L 2950 2275 
Q 2875 1625 2737 1187 
Q 2600 750 2350 425 
Q 2100 100 1750 -175 
Q 1400 -450 1000 -650 
z
M 3950 5175 
Q 4125 4650 4662 3975 
Q 5200 3300 6175 2800 
Q 5975 2625 5775 2275 
Q 5325 2600 4987 2887 
Q 4650 3175 4425 3425 
Q 4200 3675 3925 4137 
Q 3650 4600 3475 5000 
Q 3750 5075 3950 5175 
z
M 2700 4825 
Q 2475 4425 2325 4125 
Q 2175 3825 2025 3587 
Q 1875 3350 1575 2950 
Q 1275 2550 850 2125 
Q 625 2350 400 2475 
Q 900 2925 1187 3300 
Q 1475 3675 1737 4112 
Q 2000 4550 2200 5075 
Q 2400 4925 2700 4825 
z
" transform="scale(0.015625)"/>
      </defs>
      <use xlink:href="#SimHei-5e73"/>
      <use xlink:href="#SimHei-5747" x="100"/>
      <use xlink:href="#SimHei-52a0" x="200"/>
      <use xlink:href="#SimHei-6743" x="300"/>
      <use xlink:href="#SimHei-60c5" x="400"/>
      <use xlink:href="#SimHei-611f" x="500"/>
      <use xlink:href="#SimHei-5f97" x="600"/>
      <use xlink:href="#SimHei-5206" x="700"/>
     </g>
    </g>
   </g>
   <g id="line2d_33">
    <path d="M 99.606136 269.841005 
L 101.510101 270.88888 
L 103.414065 272.539973 
L 105.31803 267.730598 
L 107.221994 259.703892 
L 109.125958 253.776776 
L 111.029923 254.856821 
L 112.933887 257.086506 
L 114.837851 258.786163 
L 116.741816 260.261914 
L 118.64578 268.318924 
L 120.549745 279.77345 
L 122.453709 282.492836 
L 131.973531 266.91391 
L 133.877495 267.033118 
L 135.78146 272.780921 
L 137.685424 281.257498 
L 139.589388 282.427912 
L 141.493353 276.225237 
L 143.397317 269.307517 
L 145.301282 261.379225 
L 149.10921 249.180214 
L 151.013175 247.248609 
L 152.917139 259.699023 
L 154.821104 266.435759 
L 156.725068 260.800773 
L 158.629032 262.927626 
L 160.532997 269.797782 
L 162.436961 273.253848 
L 164.340925 268.590385 
L 166.24489 254.948917 
L 168.148854 252.425139 
L 170.052819 262.212327 
L 171.956783 264.176918 
L 173.860747 260.298738 
L 175.764712 258.735178 
L 179.572641 253.860987 
L 181.476605 253.351874 
L 183.380569 253.582489 
L 185.284534 254.734282 
L 189.092463 254.967547 
L 192.900391 261.664164 
L 194.804356 263.003675 
L 196.70832 265.3683 
L 198.612284 268.57659 
L 200.516249 269.873709 
L 202.420213 268.154036 
L 204.324178 264.924638 
L 206.228142 263.45946 
L 208.132106 268.12761 
L 210.036071 275.917094 
L 211.940035 278.562024 
L 213.844 278.817237 
L 215.747964 279.751894 
L 219.555893 279.897244 
L 221.459857 275.497728 
L 223.363821 266.281603 
L 225.267786 260.514755 
L 227.17175 258.87524 
L 229.075715 258.293899 
L 230.979679 258.79692 
L 232.883643 259.625405 
L 234.787608 260.781672 
L 236.691572 262.644501 
L 238.595537 264.808326 
L 240.499501 266.595089 
L 242.403465 267.448376 
L 244.30743 267.341998 
L 246.211394 268.11372 
L 248.115358 269.761225 
L 250.019323 270.125251 
L 251.923287 269.611368 
L 253.827252 268.31644 
L 255.731216 266.796886 
L 257.63518 269.858526 
L 259.539145 275.663594 
L 261.443109 276.221943 
L 263.347074 273.692832 
L 265.251038 272.071336 
L 267.155002 271.260588 
L 269.058967 268.064529 
L 270.962931 257.677336 
L 272.866896 244.852089 
L 274.77086 237.578938 
L 278.578789 230.613134 
L 280.482753 230.595751 
L 282.386717 237.308223 
L 284.290682 242.081653 
L 286.194646 240.162961 
L 288.098611 237.890904 
L 290.002575 236.959052 
L 293.810504 241.96431 
L 295.714468 240.023536 
L 297.618433 242.386877 
L 299.522397 255.466493 
L 301.426361 272.923628 
L 303.330326 283.260035 
L 305.23429 284.302819 
L 307.138254 280.032051 
L 309.042219 274.65527 
L 310.946183 273.79023 
L 312.850148 271.024771 
L 314.754112 260.088023 
L 316.658076 252.478233 
L 318.562041 250.386076 
L 320.466005 249.831479 
L 322.36997 254.103292 
L 324.273934 257.583758 
L 326.177898 255.677356 
L 328.081863 254.654955 
L 329.985827 254.019797 
L 331.889791 251.581205 
L 333.793756 250.157324 
L 335.69772 246.459307 
L 337.601685 244.141747 
L 339.505649 247.800166 
L 341.409613 253.381907 
L 343.313578 261.383729 
L 349.025471 294.694843 
L 350.929435 302.888062 
L 352.8334 305.101105 
L 354.737364 305.386628 
L 356.641328 300.981734 
L 358.545293 291.404034 
L 360.449257 298.672688 
L 362.353222 322.442417 
L 364.257186 326.950778 
L 366.16115 314.952953 
L 368.065115 312.859484 
L 369.969079 323.433269 
L 371.873044 330.063911 
L 373.777008 310.73225 
L 375.680972 272.534675 
L 377.584937 251.233627 
L 379.488901 253.685755 
L 381.392866 253.480519 
L 383.29683 248.214042 
L 385.200794 254.496722 
L 389.008723 283.357254 
L 390.912687 302.514356 
L 392.816652 319.191245 
L 394.720616 316.621454 
L 396.624581 297.20886 
L 400.432509 254.621222 
L 402.336474 236.451637 
L 404.240438 217.10707 
L 406.144403 198.941366 
L 408.048367 198.720992 
L 409.952331 213.917734 
L 413.76026 246.294087 
L 415.664224 260.965714 
L 417.568189 274.382119 
L 419.472153 284.189456 
L 421.376118 296.169225 
L 423.280082 312.84964 
L 425.184046 320.929431 
L 427.088011 321.663093 
L 428.991975 321.258731 
L 430.89594 319.542705 
L 432.799904 316.660966 
L 434.703868 306.832014 
L 436.607833 291.794076 
L 438.511797 284.848422 
L 440.415761 290.901196 
L 442.319726 303.744292 
L 444.22369 311.69533 
L 446.127655 314.608357 
L 448.031619 310.881434 
L 449.935583 298.776334 
L 451.839548 289.487086 
L 453.743512 278.107547 
L 455.647477 261.753362 
L 457.551441 252.106911 
L 459.455405 246.890262 
L 461.35937 247.705356 
L 463.263334 254.564608 
L 465.167299 256.273989 
L 468.975227 253.957566 
L 470.879192 255.124096 
L 472.783156 260.887714 
L 474.68712 268.316697 
L 476.591085 277.398631 
L 478.495049 285.920394 
L 480.399014 291.605294 
L 482.302978 296.525502 
L 484.206942 298.373039 
L 486.110907 292.777508 
L 488.014871 282.670629 
L 489.918836 274.795717 
L 491.8228 271.365893 
L 493.726764 270.90152 
L 495.630729 271.330426 
L 497.534693 271.883962 
L 499.438657 276.932525 
L 501.342622 282.926477 
L 503.246586 283.122504 
L 505.150551 275.027746 
L 508.958479 244.578633 
L 510.862444 229.166771 
L 512.766408 222.001339 
L 514.670373 226.631974 
L 516.574337 231.621814 
L 518.478301 239.46372 
L 520.382266 248.816155 
L 522.28623 253.505277 
L 524.190194 263.976984 
L 526.094159 272.116191 
L 527.998123 269.085177 
L 529.902088 266.320801 
L 531.806052 265.016217 
L 533.710016 266.512959 
L 535.613981 272.040279 
L 537.517945 271.152281 
L 539.42191 264.914317 
L 541.325874 262.164111 
L 543.229838 255.063708 
L 545.133803 242.419957 
L 547.037767 244.702857 
L 548.941731 260.683153 
L 550.845696 268.647228 
L 552.74966 267.529727 
L 554.653625 265.346873 
L 556.557589 269.936621 
L 558.461553 281.325045 
L 560.365518 279.042146 
L 562.269482 267.056923 
L 564.173447 267.082997 
L 566.077411 267.965448 
L 567.981375 261.688054 
L 569.88534 258.575431 
L 571.789304 258.601505 
L 573.693269 259.435589 
L 575.597233 257.108683 
L 577.501197 250.653 
L 579.405162 251.22346 
L 581.309126 259.004623 
L 583.21309 263.671875 
L 585.117055 265.365011 
L 587.021019 266.414719 
L 590.828948 266.375337 
L 592.732912 267.693007 
L 594.636877 270.197348 
L 596.540841 271.237987 
L 598.444806 270.675126 
L 600.34877 269.173099 
L 602.252734 267.124008 
L 604.156699 265.861461 
L 607.964627 262.057918 
L 609.868592 262.846136 
L 611.772556 263.028273 
L 613.676521 261.939994 
L 615.580485 264.057664 
L 617.484449 268.047671 
L 619.388414 269.702214 
L 621.292378 268.342455 
L 623.196343 266.845772 
L 625.100307 268.495032 
L 627.004271 271.121933 
L 628.908236 270.250111 
L 630.8122 269.118608 
L 632.716164 271.935225 
L 634.620129 273.864896 
L 636.524093 272.030241 
L 638.428058 269.068569 
L 640.332022 267.148182 
L 642.235986 267.399354 
L 644.139951 266.583044 
L 646.043915 262.438701 
L 647.94788 259.801392 
L 649.851844 255.806318 
L 651.755808 247.81617 
L 653.659773 243.821095 
L 655.563737 242.69082 
L 657.467701 240.43027 
L 659.371666 239.299994 
L 661.27563 245.692113 
L 663.179595 262.471425 
L 665.083559 284.244402 
L 666.987523 303.020895 
L 668.891488 316.34555 
L 672.699417 339.422004 
L 674.603381 343.579121 
L 676.507345 341.773582 
L 678.41131 339.398915 
L 680.315274 336.294633 
L 682.219239 334.91609 
L 684.123203 326.550714 
L 686.027167 310.401068 
L 687.931132 302.681983 
L 689.835096 302.304668 
L 691.73906 298.860581 
L 695.546989 286.392251 
L 697.450954 289.219278 
L 699.354918 298.964136 
L 701.258882 299.411995 
L 705.066811 279.012897 
L 706.970776 273.73869 
L 710.778704 266.981552 
L 712.682669 265.718249 
L 714.586633 265.296073 
L 716.490597 266.985812 
L 718.394562 270.816914 
L 720.298526 271.625173 
L 722.202491 269.844593 
L 724.106455 267.2827 
L 726.010419 264.303094 
L 727.914384 262.150542 
L 729.818348 258.732959 
L 731.722313 254.020893 
L 733.626277 258.692148 
L 735.530241 272.312716 
L 737.434206 279.024367 
L 739.33817 278.4635 
L 741.242134 275.286075 
L 743.146099 271.584176 
L 745.050063 272.306093 
L 746.954028 266.774021 
L 748.857992 249.931305 
L 750.761956 237.636177 
L 752.665921 233.824409 
L 754.569885 233.840045 
L 756.47385 237.559078 
L 758.377814 240.033222 
L 760.281778 240.033222 
L 762.185743 242.615735 
L 764.089707 251.214968 
L 765.993672 261.895146 
L 767.897636 267.718454 
L 769.8016 268.8089 
L 771.705565 268.174507 
L 773.609529 267.04453 
L 775.513493 267.350424 
L 777.417458 265.657986 
L 779.321422 262.848406 
L 781.225387 265.8595 
L 783.129351 273.729706 
L 785.033315 283.450999 
L 786.93728 291.108682 
L 788.841244 294.771299 
L 790.745209 296.983479 
L 792.649173 296.864031 
L 794.553137 293.172869 
L 796.457102 286.871557 
L 798.361066 278.463162 
L 800.26503 271.862383 
L 802.168995 268.305179 
L 804.072959 265.246922 
L 807.880888 256.222847 
L 809.784852 256.864113 
L 813.592781 267.578776 
L 815.496746 271.68394 
L 817.40071 274.977082 
L 819.304674 279.339697 
L 821.208639 284.167186 
L 823.112603 284.092548 
L 825.016567 279.577822 
L 826.920532 275.355277 
L 828.824496 275.229512 
L 830.728461 278.765783 
L 832.632425 280.459528 
L 834.536389 280.915348 
L 836.440354 282.200331 
L 838.344318 283.85244 
L 840.248283 284.788089 
L 844.056211 277.782455 
L 845.960176 280.031973 
L 847.86414 280.613177 
L 849.768104 277.458978 
L 853.576033 268.808207 
L 855.479998 267.778978 
L 857.383962 265.388866 
L 859.287926 259.738437 
L 861.191891 258.165751 
L 863.095855 259.418925 
L 864.99982 260.90454 
L 866.903784 261.576468 
L 868.807748 258.050954 
L 870.711713 255.461329 
L 872.615677 255.707026 
L 874.519642 251.971256 
L 876.423606 245.505901 
L 878.32757 242.136795 
L 880.231535 242.910065 
L 882.135499 247.092518 
L 884.039463 249.550821 
L 885.943428 248.042819 
L 887.847392 249.385298 
L 889.751357 254.469981 
L 891.655321 257.471036 
L 893.559285 258.388463 
L 895.46325 257.955455 
L 897.367214 256.172013 
L 899.271179 255.280291 
L 908.791 255.280291 
L 908.791 255.280291 
" clip-path="url(#p56475ffb0a)" style="fill: none; stroke: #1f77b4; stroke-width: 2; stroke-linecap: square"/>
   </g>
   <g id="line2d_34">
    <path d="M 99.606136 255.280291 
L 158.629032 255.280291 
L 160.532997 250.533135 
L 166.24489 222.050198 
L 168.148854 233.126896 
L 171.956783 296.422311 
L 173.860747 332.817175 
L 179.572641 456.243235 
L 181.476605 476.814245 
L 196.70832 476.814245 
L 198.612284 466.265009 
L 208.132106 360.77265 
L 210.036071 331.23479 
L 211.940035 303.806776 
L 215.747964 270.049221 
L 217.651928 256.335215 
L 221.459857 235.236743 
L 223.363821 233.126896 
L 229.075715 252.11552 
L 230.979679 255.280291 
L 234.787608 255.280291 
L 236.691572 250.533135 
L 242.403465 222.050198 
L 244.30743 201.322745 
L 248.115358 137.401558 
L 250.019323 110.18812 
L 253.827252 65.255557 
L 255.731216 61.934344 
L 257.63518 88.991338 
L 263.347074 206.585328 
L 265.251038 240.806472 
L 267.155002 281.887489 
L 269.058967 310.683312 
L 270.962931 312.343919 
L 272.866896 304.824858 
L 274.77086 296.116277 
L 276.674824 290.631711 
L 278.578789 283.158008 
L 280.482753 263.611281 
L 282.386717 242.417832 
L 286.194646 226.437535 
L 288.098611 210.457238 
L 290.002575 202.46709 
L 291.906539 207.680242 
L 293.810504 220.607665 
L 295.714468 230.823056 
L 297.618433 234.236183 
L 299.522397 244.050347 
L 301.426361 264.660959 
L 303.330326 280.08772 
L 305.23429 286.088926 
L 307.138254 288.153605 
L 309.042219 281.439191 
L 310.946183 270.035916 
L 312.850148 265.446079 
L 314.754112 263.274272 
L 316.658076 258.649299 
L 318.562041 255.812863 
L 320.466005 254.671275 
L 322.36997 260.067099 
L 324.273934 275.225838 
L 326.177898 288.645189 
L 328.081863 291.513448 
L 329.985827 288.701809 
L 331.889791 290.811656 
L 333.793756 297.936682 
L 335.69772 299.475502 
L 337.601685 292.202617 
L 339.505649 281.496938 
L 341.409613 276.170172 
L 343.313578 276.170172 
L 345.217542 270.895554 
L 347.121507 260.346318 
L 349.025471 255.123848 
L 352.8334 255.280291 
L 364.257186 255.280291 
L 366.16115 257.277828 
L 368.065115 261.272902 
L 369.969079 263.27044 
L 375.680972 263.27044 
L 377.584937 267.226403 
L 379.488901 273.140793 
L 381.392866 273.101682 
L 383.29683 271.104145 
L 387.104759 271.104145 
L 389.008723 277.464975 
L 390.912687 286.230672 
L 392.816652 286.962475 
L 394.720616 287.57231 
L 398.528545 296.703909 
L 400.432509 297.193837 
L 402.336474 287.247065 
L 404.240438 278.715267 
L 406.144403 282.037204 
L 408.048367 286.982455 
L 409.952331 289.473088 
L 411.856296 295.138233 
L 413.76026 308.053762 
L 415.664224 317.946836 
L 417.568189 312.965781 
L 419.472153 304.56048 
L 421.376118 302.961358 
L 423.280082 283.880592 
L 425.184046 241.689054 
L 427.088011 218.695419 
L 428.991975 225.172525 
L 430.89594 229.982258 
L 432.799904 221.674735 
L 434.703868 217.362286 
L 436.607833 241.332731 
L 438.511797 285.239437 
L 440.415761 306.773727 
L 442.319726 304.74099 
L 444.22369 310.279339 
L 446.127655 325.244112 
L 448.031619 332.522978 
L 451.839548 330.050223 
L 453.743512 328.757642 
L 455.647477 328.659673 
L 457.551441 324.39826 
L 459.455405 314.118066 
L 461.35937 295.218285 
L 463.263334 268.472051 
L 465.167299 253.02443 
L 468.975227 244.501605 
L 470.879192 245.598247 
L 472.783156 252.052943 
L 474.68712 266.466499 
L 476.591085 288.838914 
L 478.495049 300.025122 
L 480.399014 298.807045 
L 482.302978 296.370889 
L 484.206942 301.451065 
L 489.918836 339.240582 
L 491.8228 337.01601 
L 493.726764 321.188438 
L 495.630729 311.428475 
L 497.534693 299.001715 
L 503.246586 241.558607 
L 505.150551 237.391061 
L 507.054515 255.956519 
L 508.958479 277.584372 
L 512.766408 310.66378 
L 514.670373 318.575707 
L 518.478301 318.575707 
L 520.382266 310.66378 
L 526.094159 263.192218 
L 527.998123 255.280291 
L 531.806052 255.280291 
L 533.710016 271.104145 
L 539.42191 366.047268 
L 541.325874 381.531597 
L 543.229838 380.852548 
L 545.133803 389.967678 
L 547.037767 393.053131 
L 548.941731 366.065988 
L 550.845696 324.830103 
L 552.74966 288.458826 
L 554.653625 273.115538 
L 556.557589 278.643552 
L 558.461553 279.085312 
L 560.365518 252.217145 
L 562.269482 222.081971 
L 564.173447 215.657036 
L 566.077411 213.828989 
L 567.981375 214.407214 
L 569.88534 217.548397 
L 571.789304 215.553924 
L 573.693269 230.647468 
L 575.597233 258.603379 
L 577.501197 272.44441 
L 579.405162 271.532307 
L 581.309126 258.057685 
L 583.21309 241.92436 
L 585.117055 230.830946 
L 587.021019 225.343938 
L 588.924984 229.688987 
L 592.732912 237.411196 
L 596.540841 264.932056 
L 598.444806 267.655059 
L 602.252734 249.925875 
L 604.156699 251.421771 
L 606.060663 259.656066 
L 607.964627 264.865103 
L 609.868592 266.7774 
L 611.772556 276.374456 
L 613.676521 288.446872 
L 615.580485 291.414 
L 617.484449 288.72642 
L 619.388414 284.008536 
L 621.292378 274.852744 
L 623.196343 261.530525 
L 625.100307 250.71491 
L 627.004271 247.615301 
L 628.908236 251.865557 
L 632.716164 267.694402 
L 636.524093 287.218758 
L 638.428058 290.744432 
L 640.332022 289.422308 
L 642.235986 283.618527 
L 644.139951 275.834938 
L 646.043915 270.441066 
L 649.851844 255.308357 
L 651.755808 249.88719 
L 653.659773 245.252372 
L 655.563737 248.542761 
L 657.467701 257.256506 
L 659.371666 264.403487 
L 663.179595 284.592647 
L 665.083559 292.398531 
L 666.987523 303.465406 
L 668.891488 310.654414 
L 670.795452 306.913612 
L 672.699417 299.233123 
L 674.603381 296.454287 
L 676.507345 301.142077 
L 678.41131 309.39948 
L 680.315274 315.549269 
L 682.219239 317.042752 
L 684.123203 320.931869 
L 686.027167 327.301593 
L 687.931132 327.310584 
L 689.835096 321.697351 
L 691.73906 314.358906 
L 693.643025 305.055485 
L 695.546989 296.33578 
L 697.450954 290.52045 
L 699.354918 287.524525 
L 703.162847 283.076975 
L 705.066811 282.191516 
L 706.970776 282.872925 
L 710.778704 288.906751 
L 712.682669 288.590729 
L 714.586633 286.995289 
L 716.490597 287.024776 
L 718.394562 287.374514 
L 722.202491 289.712732 
L 724.106455 288.755665 
L 727.914384 289.189899 
L 729.818348 286.41609 
L 731.722313 283.330193 
L 733.626277 279.451649 
L 735.530241 276.594942 
L 737.434206 276.941929 
L 739.33817 277.600253 
L 741.242134 279.830678 
L 745.050063 289.508537 
L 746.954028 291.433048 
L 748.857992 288.642479 
L 750.761956 285.153262 
L 752.665921 283.857756 
L 754.569885 284.027285 
L 756.47385 284.611621 
L 758.377814 285.564048 
L 760.281778 289.757515 
L 762.185743 293.041246 
L 764.089707 291.398811 
L 765.993672 288.326344 
L 767.897636 284.552521 
L 769.8016 281.410537 
L 771.705565 278.947107 
L 773.609529 274.424079 
L 775.513493 271.992227 
L 777.417458 275.333922 
L 779.321422 280.95303 
L 781.225387 285.135455 
L 783.129351 286.548004 
L 786.93728 283.691537 
L 788.841244 285.687998 
L 790.745209 287.460992 
L 792.649173 285.776459 
L 794.553137 284.348494 
L 796.457102 284.261395 
L 798.361066 285.551858 
L 800.26503 288.81464 
L 802.168995 290.522417 
L 804.072959 289.900795 
L 805.976924 290.183835 
L 809.784852 292.532112 
L 811.688817 292.680183 
L 815.496746 289.745661 
L 817.40071 288.87607 
L 819.304674 287.356296 
L 821.208639 285.135502 
L 823.112603 283.648402 
L 825.016567 283.727865 
L 828.824496 287.021923 
L 830.728461 288.276675 
L 832.632425 290.402925 
L 834.536389 292.991608 
L 836.440354 294.60801 
L 838.344318 294.664374 
L 840.248283 293.202683 
L 842.152247 291.473564 
L 845.960176 288.632892 
L 849.768104 286.929578 
L 851.672069 286.649734 
L 853.576033 288.570645 
L 855.479998 291.441686 
L 857.383962 292.654218 
L 859.287926 292.352098 
L 861.191891 291.675045 
L 863.095855 291.152706 
L 864.99982 290.086127 
L 866.903784 286.851679 
L 868.807748 282.077285 
L 870.711713 278.37158 
L 872.615677 276.969513 
L 876.423606 276.483008 
L 878.32757 276.923398 
L 880.231535 277.793923 
L 882.135499 278.466661 
L 884.039463 279.286782 
L 885.943428 279.019335 
L 887.847392 276.335366 
L 891.655321 268.63941 
L 893.559285 265.285215 
L 897.367214 259.47783 
L 899.271179 256.679471 
L 901.175143 255.280291 
L 908.791 255.280291 
L 908.791 255.280291 
" clip-path="url(#p56475ffb0a)" style="fill: none; stroke: #ff7f0e; stroke-width: 2; stroke-linecap: square"/>
   </g>
   <g id="line2d_35">
    <path d="M 99.606136 93.479786 
L 101.510101 87.487174 
L 103.414065 83.4921 
L 105.31803 80.638476 
L 107.221994 69.223978 
L 109.125958 63.516729 
L 124.357673 63.516729 
L 126.261638 77.214126 
L 131.973531 159.39851 
L 133.877495 173.095907 
L 135.78146 173.095907 
L 137.685424 184.053825 
L 139.589388 192.272264 
L 141.493353 178.879253 
L 143.397317 157.57219 
L 145.301282 162.898956 
L 147.205246 208.556947 
L 149.10921 267.912335 
L 151.013175 316.309806 
L 152.917139 334.534954 
L 154.821104 341.459749 
L 156.725068 355.727871 
L 158.629032 342.79144 
L 164.340925 224.080664 
L 166.24489 203.72481 
L 168.148854 202.58336 
L 170.052819 202.012635 
L 173.860747 202.012635 
L 175.764712 221.797764 
L 181.476605 340.508541 
L 183.380569 362.957053 
L 185.284534 368.283819 
L 187.188498 390.732331 
L 189.092463 410.51746 
L 190.996427 390.146972 
L 194.804356 310.446182 
L 196.70832 290.389279 
L 198.612284 298.053299 
L 200.516249 299.194749 
L 202.420213 291.2046 
L 204.324178 311.575089 
L 208.132106 391.275878 
L 210.036071 423.460686 
L 211.940035 440.052473 
L 213.844 433.813413 
L 215.747964 407.352531 
L 217.651928 376.429619 
L 221.459857 321.313902 
L 223.363821 298.260693 
L 225.267786 278.570684 
L 227.17175 269.481705 
L 229.075715 272.29827 
L 230.979679 271.260588 
L 232.883643 252.997392 
L 234.787608 221.362926 
L 236.691572 207.387716 
L 238.595537 212.376274 
L 240.499501 213.60367 
L 242.403465 209.765388 
L 244.30743 203.900092 
L 246.211394 209.379051 
L 248.115358 235.328009 
L 250.019323 250.716443 
L 251.923287 232.410971 
L 253.827252 203.136524 
L 255.731216 179.253883 
L 257.63518 157.724384 
L 259.539145 160.235573 
L 261.443109 177.661706 
L 263.347074 188.315238 
L 265.251038 215.329549 
L 270.962931 345.454823 
L 272.866896 367.142369 
L 274.77086 345.454823 
L 280.482753 215.329549 
L 282.386717 184.199101 
L 286.194646 146.42749 
L 288.098611 149.22923 
L 293.810504 223.112161 
L 295.714468 235.522833 
L 299.522397 235.854891 
L 301.426361 242.717426 
L 312.850148 323.158504 
L 314.754112 329.85501 
L 368.065115 329.85501 
L 369.969079 330.561621 
L 371.873044 331.974845 
L 373.777008 327.354691 
L 375.680972 316.70116 
L 377.584937 304.906179 
L 383.29683 265.390275 
L 385.200794 251.040621 
L 387.104759 242.724344 
L 389.008723 240.441444 
L 390.912687 239.299994 
L 398.528545 239.299994 
L 400.432509 235.875645 
L 411.856296 194.783453 
L 413.76026 191.359104 
L 432.799904 191.359104 
L 434.703868 195.924903 
L 446.127655 250.714492 
L 448.031619 255.280291 
L 451.839548 255.280291 
L 453.743512 268.977688 
L 455.647477 296.372483 
L 457.551441 326.050177 
L 465.167299 453.892552 
L 467.071263 472.155748 
L 468.975227 476.721547 
L 470.879192 479.004447 
L 474.68712 479.004447 
L 476.591085 471.014298 
L 488.014871 375.132517 
L 489.918836 367.142369 
L 501.342622 367.142369 
L 503.246586 359.152221 
L 514.670373 263.27044 
L 516.574337 255.280291 
L 520.382266 255.280291 
L 522.28623 260.98754 
L 527.998123 295.231033 
L 529.902088 309.499155 
L 531.806052 326.620902 
L 533.710016 335.181775 
L 535.613981 329.474526 
L 541.325874 295.231033 
L 543.229838 280.962911 
L 545.133803 263.841164 
L 547.037767 255.280291 
L 548.941731 271.260588 
L 560.365518 463.02415 
L 562.269482 479.004447 
L 569.88534 479.004447 
L 571.789304 463.02415 
L 583.21309 271.260588 
L 585.117055 255.280291 
L 596.540841 255.280291 
L 598.444806 254.519325 
L 609.868592 245.387726 
L 611.772556 244.62676 
L 649.851844 244.62676 
L 651.755808 261.368023 
L 663.179595 462.263183 
L 665.083559 479.004447 
L 676.507345 479.004447 
L 678.41131 463.02415 
L 680.315274 431.063556 
L 682.219239 410.51746 
L 684.123203 401.385862 
L 686.027167 380.839766 
L 689.835096 316.918579 
L 691.73906 300.938282 
L 693.643025 316.918579 
L 695.546989 337.464675 
L 697.450954 343.400214 
L 699.354918 357.554191 
L 701.258882 374.904227 
L 705.066811 393.167424 
L 706.970776 386.318725 
L 708.87474 363.48973 
L 710.778704 343.856794 
L 712.682669 327.419917 
L 714.586633 319.201478 
L 718.394562 319.201478 
L 720.298526 298.655383 
L 726.010419 175.378807 
L 727.914384 157.298243 
L 729.818348 162.229306 
L 731.722313 169.981552 
L 733.626277 201.101077 
L 735.530241 242.914185 
L 739.33817 306.835372 
L 741.242134 315.784338 
L 743.146099 301.721677 
L 745.050063 284.837833 
L 746.954028 265.132805 
L 748.857992 255.280291 
L 752.665921 255.280291 
L 754.569885 247.127078 
L 756.47385 230.820653 
L 758.377814 238.647737 
L 765.993672 366.490112 
L 769.8016 446.569484 
L 771.705565 454.100088 
L 773.609529 441.803561 
L 775.513493 433.813413 
L 777.417458 418.29248 
L 781.225387 372.811577 
L 783.129351 359.306376 
L 785.033315 351.731613 
L 786.93728 337.479455 
L 788.841244 319.267239 
L 790.745209 308.932127 
L 792.649173 307.081168 
L 794.553137 305.561046 
L 796.457102 302.998321 
L 798.361066 302.386538 
L 800.26503 304.075586 
L 802.168995 305.348127 
L 804.072959 306.133684 
L 805.976924 305.825209 
L 807.880888 303.795658 
L 809.784852 301.418474 
L 811.688817 301.669428 
L 813.592781 304.198634 
L 815.496746 307.551837 
L 817.40071 311.799513 
L 819.304674 312.216992 
L 821.208639 309.431315 
L 823.112603 307.641635 
L 825.016567 303.872178 
L 826.920532 299.124091 
L 828.824496 294.851631 
L 830.728461 288.842421 
L 832.632425 285.821134 
L 834.536389 285.755234 
L 836.440354 284.445571 
L 838.344318 286.02631 
L 840.248283 289.496306 
L 842.152247 290.234636 
L 844.056211 290.453677 
L 845.960176 293.001739 
L 847.86414 297.911356 
L 849.768104 295.935629 
L 851.672069 282.940392 
L 853.576033 273.81602 
L 855.479998 273.183436 
L 857.383962 276.859236 
L 859.287926 281.995111 
L 861.191891 281.759416 
L 863.095855 285.399049 
L 864.99982 298.554189 
L 866.903784 306.33446 
L 868.807748 307.658179 
L 870.711713 306.708748 
L 872.615677 302.829712 
L 874.519642 302.852715 
L 876.423606 303.701071 
L 878.32757 299.734601 
L 880.231535 299.595712 
L 882.135499 304.366086 
L 884.039463 304.835398 
L 885.943428 301.660103 
L 887.847392 301.293749 
L 889.751357 306.813021 
L 891.655321 313.240305 
L 893.559285 311.933197 
L 895.46325 302.632892 
L 897.367214 294.549716 
L 899.271179 293.879612 
L 901.175143 294.169034 
L 903.079107 292.042991 
L 904.983072 289.006995 
L 906.887036 287.965573 
L 908.791 290.867563 
L 908.791 290.867563 
" clip-path="url(#p56475ffb0a)" style="fill: none; stroke: #008000; stroke-width: 2; stroke-linecap: square"/>
   </g>
   <g id="line2d_36">
    <path d="M 910.694965 251.952859 
L 912.598929 248.466594 
L 914.502894 245.436255 
L 916.406858 243.596014 
L 918.310822 244.541177 
L 920.214787 247.239848 
L 922.118751 249.706627 
L 924.022716 249.594366 
L 925.92668 246.030399 
L 927.830644 241.149164 
L 929.734609 240.787006 
L 931.638573 245.172623 
L 933.542537 249.781828 
L 935.446502 250.717268 
L 937.350466 247.915686 
L 939.254431 243.73257 
L 941.158395 240.954836 
L 943.062359 241.723155 
L 944.966324 245.812372 
L 946.870288 250.822848 
L 948.774253 254.801447 
L 950.678217 257.856063 
L 952.582181 260.879441 
L 954.486146 265.426806 
L 956.39011 272.658902 
L 958.294075 280.621361 
L 960.198039 285.102332 
L 962.102003 284.630862 
L 964.005968 280.973948 
L 965.909932 275.010453 
L 967.813896 266.48365 
L 969.717861 255.596375 
L 971.621825 243.64162 
L 973.52579 234.145209 
L 975.429754 231.542583 
L 977.333718 235.616797 
L 979.237683 241.180327 
L 981.141647 244.501598 
L 983.045612 243.939214 
L 984.949576 241.973128 
L 986.85354 243.113385 
L 988.757505 253.518029 
L 990.661469 269.634908 
L 992.565433 277.621496 
L 994.469398 277.010967 
L 996.373362 273.369822 
L 998.277327 268.674052 
L 1000.181291 263.573876 
L 1002.085255 258.398144 
L 1003.98922 253.598119 
L 1005.893184 249.557717 
L 1007.797149 248.45635 
L 1009.701113 252.409496 
L 1011.605077 259.586936 
L 1013.509042 264.413197 
L 1015.413006 264.120623 
L 1017.31697 261.135087 
L 1019.220935 257.69439 
L 1021.124899 254.785212 
L 1023.028864 252.461334 
" clip-path="url(#p56475ffb0a)" style="fill: none; stroke-dasharray: 7.4,3.2; stroke-dashoffset: 0; stroke: #1f77b4; stroke-width: 2"/>
   </g>
   <g id="line2d_37">
    <path d="M 910.694965 257.157343 
L 912.598929 260.730456 
L 914.502894 262.970187 
L 916.406858 262.395408 
L 918.310822 260.724776 
L 920.214787 259.469991 
L 922.118751 259.085833 
L 924.022716 258.846832 
L 925.92668 257.837881 
L 927.830644 259.47713 
L 929.734609 265.753791 
L 931.638573 274.138081 
L 933.542537 279.597378 
L 935.446502 280.977377 
L 937.350466 278.823251 
L 939.254431 276.421972 
L 941.158395 276.458212 
L 943.062359 278.742105 
L 944.966324 281.491631 
L 946.870288 282.858109 
L 948.774253 282.777123 
L 950.678217 282.485853 
L 952.582181 281.950048 
L 954.486146 281.744261 
L 956.39011 281.369126 
L 958.294075 279.676731 
L 960.198039 277.357675 
L 962.102003 275.988968 
L 964.005968 276.269503 
L 965.909932 275.662758 
L 967.813896 270.908734 
L 969.717861 263.478378 
L 971.621825 257.531815 
L 973.52579 255.333048 
L 975.429754 258.211889 
L 977.333718 264.284142 
L 979.237683 272.077703 
L 981.141647 278.900598 
L 983.045612 282.583518 
L 984.949576 283.943014 
L 986.85354 284.410667 
L 988.757505 288.539859 
L 990.661469 298.71664 
L 992.565433 304.829322 
L 994.469398 303.822059 
L 996.373362 298.741743 
L 998.277327 291.110088 
L 1000.181291 283.363963 
L 1002.085255 277.290383 
L 1003.98922 270.411331 
L 1005.893184 261.610464 
L 1007.797149 252.256727 
L 1009.701113 244.497972 
L 1011.605077 240.606014 
L 1013.509042 239.622171 
L 1015.413006 239.670207 
L 1017.31697 241.113237 
L 1019.220935 244.665409 
L 1021.124899 248.871753 
L 1023.028864 251.336977 
" clip-path="url(#p56475ffb0a)" style="fill: none; stroke-dasharray: 7.4,3.2; stroke-dashoffset: 0; stroke: #ff7f0e; stroke-width: 2"/>
   </g>
   <g id="line2d_38">
    <path d="M 910.694965 308.139122 
L 912.598929 300.119344 
L 914.502894 293.88938 
L 916.406858 293.312908 
L 918.310822 296.458953 
L 920.214787 300.895107 
L 922.118751 305.095327 
L 924.022716 308.781892 
L 925.92668 310.073239 
L 927.830644 307.194108 
L 929.734609 304.046944 
L 931.638573 302.213286 
L 933.542537 297.934699 
L 935.446502 287.61617 
L 937.350466 277.069465 
L 939.254431 268.455563 
L 941.158395 260.969628 
L 943.062359 253.072495 
L 944.966324 243.992268 
L 946.870288 236.330084 
L 948.774253 231.950125 
L 950.678217 230.701381 
L 952.582181 231.146558 
L 954.486146 231.956497 
L 956.39011 234.183337 
L 958.294075 238.558976 
L 960.198039 242.652527 
L 962.102003 243.892736 
L 964.005968 242.625057 
L 965.909932 241.988791 
L 967.813896 243.994615 
L 969.717861 247.595385 
L 971.621825 253.342849 
L 973.52579 262.679055 
L 975.429754 277.449727 
L 977.333718 294.104888 
L 979.237683 311.212024 
L 981.141647 328.330467 
L 983.045612 346.562301 
L 984.949576 367.426431 
L 986.85354 389.579893 
L 988.757505 410.958173 
L 990.661469 424.819409 
L 992.565433 423.107024 
L 994.469398 405.626831 
L 996.373362 377.729156 
L 998.277327 348.766234 
L 1000.181291 325.807671 
L 1002.085255 312.9572 
L 1003.98922 308.480802 
L 1005.893184 307.979925 
L 1007.797149 308.537114 
L 1009.701113 309.369194 
L 1011.605077 311.29974 
L 1013.509042 313.022208 
L 1015.413006 313.121887 
L 1017.31697 310.939376 
L 1019.220935 307.212111 
L 1021.124899 303.461747 
L 1023.028864 300.156244 
" clip-path="url(#p56475ffb0a)" style="fill: none; stroke-dasharray: 7.4,3.2; stroke-dashoffset: 0; stroke: #008000; stroke-width: 2"/>
   </g>
   <g id="patch_3">
    <path d="M 53.435 510.965041 
L 53.435 29.97375 
" style="fill: none; stroke: #000000; stroke-width: 0.8; stroke-linejoin: miter; stroke-linecap: square"/>
   </g>
   <g id="patch_4">
    <path d="M 1069.2 510.965041 
L 1069.2 29.97375 
" style="fill: none; stroke: #000000; stroke-width: 0.8; stroke-linejoin: miter; stroke-linecap: square"/>
   </g>
   <g id="patch_5">
    <path d="M 53.435 510.965041 
L 1069.2 510.965041 
" style="fill: none; stroke: #000000; stroke-width: 0.8; stroke-linejoin: miter; stroke-linecap: square"/>
   </g>
   <g id="patch_6">
    <path d="M 53.435 29.97375 
L 1069.2 29.97375 
" style="fill: none; stroke: #000000; stroke-width: 0.8; stroke-linejoin: miter; stroke-linecap: square"/>
   </g>
   <g id="text_19">
    <!-- 平台情感得分变化趋势及未来60天预测 (PyTorch Transformer-LSTM) -->
    <g transform="translate(317.3175 23.97375) scale(0.16 -0.16)">
     <defs>
      <path id="SimHei-53f0" d="M 5300 2025 
Q 5275 1575 5275 725 
Q 5275 -100 5300 -550 
L 4750 -550 
L 4750 -200 
L 1675 -200 
L 1675 -575 
L 1125 -575 
Q 1150 -200 1150 575 
Q 1150 1375 1125 2025 
L 5300 2025 
z
M 3250 4900 
Q 3050 4750 2675 4300 
Q 2300 3850 1600 3125 
Q 2275 3150 2975 3187 
Q 3675 3225 4700 3300 
Q 4500 3600 3875 4150 
Q 4075 4275 4275 4525 
Q 5225 3550 5950 2725 
Q 5675 2575 5475 2350 
Q 5250 2700 5050 2875 
Q 3800 2800 2587 2712 
Q 1375 2625 900 2450 
Q 800 2925 650 3100 
Q 1000 3200 1587 3800 
Q 2175 4400 2650 5275 
Q 3000 5000 3250 4900 
z
M 4750 275 
L 4750 1550 
L 1675 1550 
L 1675 275 
L 4750 275 
z
" transform="scale(0.015625)"/>
      <path id="SimHei-53d8" d="M 5200 1975 
Q 4950 1600 4537 1137 
Q 4125 675 3675 375 
Q 3925 225 4600 87 
Q 5275 -50 6000 -75 
Q 5700 -400 5650 -625 
Q 4850 -525 4212 -312 
Q 3575 -100 3225 125 
Q 2800 -125 2150 -325 
Q 1500 -525 700 -675 
Q 600 -425 400 -175 
Q 950 -150 1687 12 
Q 2425 175 2825 375 
Q 2275 775 1675 1575 
Q 1350 1575 1000 1550 
L 1000 2000 
Q 1450 1975 2075 1975 
L 5200 1975 
z
M 3225 5275 
Q 3400 4900 3550 4475 
L 4675 4475 
Q 5400 4475 5975 4500 
L 5975 4025 
Q 5375 4050 4725 4050 
L 4125 4050 
L 4125 2950 
Q 4125 2550 4150 2150 
L 3600 2150 
Q 3625 2550 3625 2950 
L 3625 4050 
L 2750 4050 
L 2750 2950 
Q 2750 2675 2775 2150 
L 2225 2150 
Q 2250 2675 2250 2950 
L 2250 4050 
L 1700 4050 
Q 975 4050 425 4025 
L 425 4500 
Q 950 4475 1700 4475 
L 2975 4475 
Q 2925 4675 2700 5125 
Q 2950 5150 3225 5275 
z
M 2200 1575 
Q 2650 975 3250 600 
Q 3850 1000 4275 1575 
L 2200 1575 
z
M 4850 3750 
Q 5375 3275 5950 2675 
Q 5750 2525 5500 2300 
Q 5075 2800 4450 3400 
Q 4675 3575 4850 3750 
z
M 1825 3500 
Q 1700 3375 1425 3025 
Q 1150 2675 825 2300 
Q 575 2475 375 2600 
Q 975 3150 1300 3825 
Q 1525 3650 1825 3500 
z
" transform="scale(0.015625)"/>
      <path id="SimHei-5316" d="M 3925 5025 
Q 3900 4900 3900 4400 
L 3900 2625 
Q 4375 3025 4775 3450 
Q 5175 3875 5400 4300 
Q 5600 4100 5900 3925 
Q 5700 3700 5225 3212 
Q 4750 2725 4487 2512 
Q 4225 2300 3900 2025 
L 3900 450 
Q 3900 50 4225 50 
L 5200 50 
Q 5400 75 5462 262 
Q 5525 450 5575 850 
Q 5800 650 6150 600 
Q 6000 -100 5825 -250 
Q 5650 -400 5350 -400 
L 3950 -400 
Q 3425 -400 3400 200 
L 3400 1675 
Q 3225 1525 2962 1350 
Q 2700 1175 2375 975 
Q 2225 1225 2025 1400 
Q 2350 1550 2737 1787 
Q 3125 2025 3400 2250 
L 3400 4500 
Q 3400 4800 3375 5025 
L 3925 5025 
z
M 2400 4850 
Q 2175 4550 2075 4337 
Q 1975 4125 1825 3775 
L 1825 675 
Q 1825 -75 1850 -550 
L 1325 -550 
Q 1350 -125 1350 650 
L 1350 3050 
Q 1125 2725 962 2525 
Q 800 2325 675 2175 
Q 500 2375 275 2525 
Q 625 2850 875 3212 
Q 1125 3575 1312 3912 
Q 1500 4250 1625 4575 
Q 1750 4900 1825 5100 
Q 1975 4975 2400 4850 
z
" transform="scale(0.015625)"/>
      <path id="SimHei-8d8b" d="M 6000 -500 
Q 4950 -525 4237 -500 
Q 3525 -475 2950 -350 
Q 2375 -225 1950 25 
Q 1525 275 1100 700 
Q 875 -150 625 -600 
Q 400 -300 225 -225 
Q 500 175 600 587 
Q 700 1000 737 1375 
Q 775 1750 775 2025 
Q 1025 1950 1325 1925 
Q 1200 1550 1200 1250 
Q 1200 950 1700 625 
L 1700 2600 
Q 850 2600 400 2575 
L 400 2975 
Q 875 2950 1575 2950 
L 1575 3925 
Q 1050 3925 600 3900 
L 600 4325 
Q 1050 4300 1575 4300 
Q 1575 4750 1550 5200 
L 2050 5200 
Q 2025 4800 2025 4300 
Q 2400 4300 2800 4325 
L 2800 3900 
Q 2375 3925 2025 3925 
L 2025 2950 
Q 2550 2950 3000 2975 
L 3000 2575 
Q 2550 2600 2150 2600 
L 2150 1775 
Q 2475 1775 2850 1800 
L 2850 1400 
Q 2500 1425 2150 1425 
L 2150 350 
Q 2925 -50 4150 -50 
Q 5400 -50 6200 75 
Q 6025 -200 6000 -500 
z
M 5900 450 
Q 3750 450 3275 425 
L 3275 875 
Q 3750 850 5400 850 
L 5400 1625 
Q 3850 1625 3475 1600 
L 3475 2025 
Q 3850 2000 5400 2000 
L 5400 2875 
L 4075 2875 
Q 3775 2875 3425 2850 
L 3425 3150 
L 3350 3025 
Q 3150 3300 2925 3375 
Q 3325 3875 3575 4387 
Q 3825 4900 3925 5250 
Q 4225 5125 4475 5075 
Q 4350 4900 4150 4500 
L 5750 4500 
Q 5250 3675 5025 3225 
L 5900 3225 
Q 5875 2775 5875 1800 
Q 5875 850 5900 450 
z
M 3475 3250 
Q 3775 3225 4100 3225 
L 4525 3225 
Q 4675 3525 5025 4150 
L 3975 4150 
Q 3650 3525 3475 3250 
z
" transform="scale(0.015625)"/>
      <path id="SimHei-52bf" d="M 2700 1500 
Q 2725 1700 2725 1925 
Q 3075 1850 3275 1825 
Q 3225 1700 3200 1500 
L 5325 1500 
Q 5300 1150 5237 662 
Q 5175 175 5075 -62 
Q 4975 -300 4737 -375 
Q 4500 -450 3825 -525 
Q 3800 -275 3550 25 
Q 4325 -25 4475 62 
Q 4625 150 4675 350 
Q 4725 550 4775 1100 
L 3125 1100 
Q 2850 325 2250 -12 
Q 1650 -350 775 -600 
Q 675 -325 400 -125 
Q 1050 -50 1687 225 
Q 2325 500 2600 1100 
L 1550 1100 
Q 1075 1100 650 1075 
L 650 1525 
Q 1075 1500 1550 1500 
L 2700 1500 
z
M 2350 2250 
Q 3025 2500 3350 3050 
Q 3175 3175 2850 3325 
Q 3025 3475 3100 3675 
L 3500 3425 
Q 3550 3625 3600 4075 
Q 3225 4075 2925 4025 
L 2875 4425 
L 3600 4425 
Q 3600 4900 3550 5200 
Q 3775 5150 4125 5125 
Q 4050 4875 4050 4450 
L 5275 4475 
Q 5200 3975 5175 3450 
Q 5150 2925 5262 2650 
Q 5375 2375 5487 2337 
Q 5600 2300 5600 2925 
Q 5800 2725 6125 2675 
Q 5975 2075 5875 1925 
Q 5775 1775 5600 1750 
Q 5425 1725 5112 2000 
Q 4800 2275 4725 2800 
Q 4650 3325 4725 4100 
L 4050 4075 
Q 4000 3525 3950 3200 
Q 4150 3075 4450 2900 
Q 4225 2725 4100 2550 
Q 3925 2700 3775 2800 
Q 3400 2325 2850 1950 
Q 2675 2125 2350 2250 
z
M 2525 3300 
Q 2125 3200 1950 3175 
L 1950 2250 
Q 1925 1975 1662 1900 
Q 1400 1825 1000 1750 
Q 975 2025 800 2300 
Q 1350 2275 1425 2325 
Q 1500 2375 1500 2625 
L 1500 3075 
Q 875 2900 450 2775 
Q 375 3050 225 3225 
Q 675 3275 1500 3450 
L 1500 4025 
Q 800 4025 425 4000 
L 425 4450 
Q 800 4425 1500 4425 
Q 1500 4875 1475 5150 
L 2025 5150 
Q 1950 4900 1950 4425 
Q 2200 4425 2575 4450 
L 2575 4000 
Q 2200 4025 1950 4025 
L 1950 3550 
Q 2250 3600 2550 3700 
Q 2525 3525 2525 3300 
z
" transform="scale(0.015625)"/>
      <path id="SimHei-53ca" d="M 5150 4800 
Q 5000 4525 4762 4037 
Q 4525 3550 4275 3125 
L 5475 3125 
Q 5125 2100 4837 1612 
Q 4550 1125 4250 775 
Q 4525 575 5062 350 
Q 5600 125 6150 0 
Q 5875 -300 5800 -525 
Q 4875 -225 3900 450 
Q 3375 50 2837 -162 
Q 2300 -375 1675 -550 
Q 1625 -425 1375 -125 
Q 2800 175 3525 750 
Q 3175 1125 2850 1587 
Q 2525 2050 2275 2500 
Q 2175 2075 2025 1687 
Q 1875 1300 1687 962 
Q 1500 625 1275 337 
Q 1050 50 625 -400 
Q 500 -225 250 25 
Q 875 500 1250 1150 
Q 1625 1800 1775 2387 
Q 1925 2975 1987 3512 
Q 2050 4050 2050 4400 
L 1750 4400 
Q 1375 4400 925 4375 
L 925 4825 
Q 1375 4800 1750 4800 
L 5150 4800 
z
M 2400 3125 
Q 2625 2675 3100 2000 
Q 3575 1325 3875 1075 
Q 4100 1300 4350 1712 
Q 4600 2125 4825 2725 
L 3525 2725 
Q 3700 3000 3900 3387 
Q 4100 3775 4375 4400 
L 2525 4400 
Q 2500 4000 2400 3125 
z
" transform="scale(0.015625)"/>
      <path id="SimHei-672a" d="M 2875 4150 
Q 2875 4900 2850 5225 
L 3400 5225 
Q 3375 4925 3375 4150 
L 4475 4150 
Q 4950 4150 5375 4175 
L 5375 3725 
Q 4950 3750 4475 3750 
L 3375 3750 
L 3375 2750 
L 4850 2750 
Q 5400 2750 5875 2775 
L 5875 2325 
Q 5400 2350 4875 2350 
L 3675 2350 
Q 4125 1675 4662 1187 
Q 5200 700 6175 425 
Q 5850 275 5725 -100 
Q 5050 150 4462 650 
Q 3875 1150 3375 2050 
L 3375 300 
Q 3375 -175 3400 -575 
L 2825 -575 
Q 2875 -175 2875 300 
L 2875 2125 
Q 2275 1150 1700 650 
Q 1125 150 675 -150 
Q 575 75 225 300 
Q 650 450 1312 1000 
Q 1975 1550 2475 2350 
L 1225 2350 
Q 675 2350 375 2325 
L 375 2775 
Q 750 2750 1275 2750 
L 2875 2750 
L 2875 3750 
L 1825 3750 
Q 1225 3750 850 3725 
L 850 4175 
Q 1225 4150 1775 4150 
L 2875 4150 
z
" transform="scale(0.015625)"/>
      <path id="SimHei-6765" d="M 3450 5125 
Q 3425 4875 3425 4600 
L 3425 4300 
L 4925 4300 
Q 5225 4300 5575 4325 
L 5575 3825 
Q 5225 3875 4925 3875 
L 3425 3875 
L 3425 2425 
L 5150 2425 
Q 5525 2425 5975 2450 
L 5975 1975 
Q 5550 2000 5150 2000 
L 3850 2000 
Q 4025 1750 4275 1525 
Q 4525 1300 4812 1087 
Q 5100 875 5450 725 
Q 5800 575 6125 500 
Q 5875 275 5800 150 
Q 5725 25 5700 -75 
Q 5175 150 4837 387 
Q 4500 625 4212 900 
Q 3925 1175 3725 1425 
Q 3525 1675 3425 1900 
L 3425 475 
Q 3425 75 3450 -475 
L 2875 -475 
Q 2925 75 2925 475 
L 2925 1950 
Q 2400 1125 1825 612 
Q 1250 100 775 -175 
Q 625 50 325 275 
Q 1225 675 1775 1237 
Q 2325 1800 2425 2000 
L 1125 2000 
Q 825 2000 425 1950 
L 425 2450 
Q 825 2425 1125 2425 
L 2925 2425 
L 2925 3875 
L 1500 3875 
Q 1075 3875 775 3825 
L 775 4325 
Q 1075 4300 1475 4300 
L 2925 4300 
L 2925 4625 
Q 2875 4900 2875 5125 
L 3450 5125 
z
M 4950 3500 
Q 4700 3075 4350 2500 
Q 4125 2600 3925 2675 
Q 4325 3400 4525 3725 
Q 4750 3650 4950 3500 
z
M 1750 3700 
Q 2150 3250 2400 2750 
Q 2175 2650 1975 2525 
Q 1750 2975 1400 3425 
Q 1575 3550 1750 3700 
z
" transform="scale(0.015625)"/>
      <path id="SimHei-36" d="M 250 1612 
Q 275 1975 387 2225 
Q 500 2475 725 2850 
L 1750 4450 
L 2325 4450 
L 1275 2800 
Q 1950 2975 2350 2750 
Q 2750 2525 2887 2237 
Q 3025 1950 3037 1612 
Q 3050 1275 2937 950 
Q 2825 625 2537 362 
Q 2250 100 1737 75 
Q 1225 50 862 262 
Q 500 475 362 862 
Q 225 1250 250 1612 
z
M 1025 787 
Q 1250 550 1625 525 
Q 2000 500 2250 775 
Q 2500 1050 2500 1575 
Q 2500 2100 2187 2300 
Q 1875 2500 1487 2450 
Q 1100 2400 925 2075 
Q 750 1750 775 1387 
Q 800 1025 1025 787 
z
" transform="scale(0.015625)"/>
      <path id="SimHei-5929" d="M 4475 4900 
Q 4925 4900 5375 4925 
L 5375 4400 
Q 4925 4425 4475 4425 
L 3450 4425 
L 3450 3075 
L 5050 3075 
Q 5525 3075 5900 3100 
L 5900 2575 
Q 5550 2600 5075 2600 
L 3525 2600 
Q 3875 1650 4525 975 
Q 5175 300 6200 50 
Q 5850 -225 5775 -450 
Q 5000 -175 4350 412 
Q 3700 1000 3225 2100 
Q 2925 1075 2275 462 
Q 1625 -150 650 -575 
Q 550 -325 225 -100 
Q 950 100 1750 737 
Q 2550 1375 2875 2600 
L 1500 2600 
Q 950 2600 575 2575 
L 575 3100 
Q 975 3075 1500 3075 
L 2950 3075 
L 2950 4425 
L 1900 4425 
Q 1375 4425 1000 4400 
L 1000 4925 
Q 1400 4900 1900 4900 
L 4475 4900 
z
" transform="scale(0.015625)"/>
      <path id="SimHei-9884" d="M 5200 4800 
Q 5575 4800 5950 4825 
L 5950 4400 
Q 5575 4425 5200 4425 
L 4500 4425 
Q 4425 4050 4350 3600 
L 5725 3600 
Q 5700 3225 5700 2800 
L 5700 1725 
Q 5700 1300 5725 850 
L 5250 850 
L 5250 3225 
L 3550 3225 
L 3550 800 
L 3075 800 
Q 3100 1375 3100 1725 
L 3100 2775 
Q 3100 3175 3075 3600 
L 3900 3600 
Q 4000 4150 4000 4425 
L 3725 4425 
Q 3300 4425 2850 4400 
L 2850 4825 
Q 3325 4800 3725 4800 
L 5200 4800 
z
M 2600 1775 
Q 2350 1825 2150 1825 
Q 2250 2250 2300 2450 
L 1750 2450 
L 1750 125 
Q 1725 -300 1425 -400 
Q 1125 -500 750 -500 
Q 700 -225 575 25 
Q 1125 -25 1212 37 
Q 1300 100 1300 350 
L 1300 2450 
L 1025 2450 
Q 700 2450 350 2425 
L 350 2850 
Q 700 2825 1000 2825 
L 2850 2825 
Q 2725 2325 2600 1775 
z
M 4725 2875 
Q 4625 2575 4600 2100 
Q 4575 1625 4462 1037 
Q 4350 450 3962 62 
Q 3575 -325 2925 -675 
Q 2700 -500 2475 -350 
Q 3075 -125 3437 200 
Q 3800 525 3950 937 
Q 4100 1350 4137 1850 
Q 4175 2350 4175 2925 
L 4725 2875 
z
M 1625 2900 
Q 1275 3275 800 3650 
Q 925 3775 1075 3950 
Q 1250 3825 1425 3675 
Q 1750 4150 1950 4375 
L 1400 4375 
Q 900 4375 450 4350 
L 450 4775 
Q 900 4750 1375 4750 
L 2575 4750 
L 2575 4375 
Q 2200 4100 1725 3400 
L 1950 3200 
Q 1750 3025 1625 2900 
z
M 4775 725 
Q 5725 0 6075 -325 
Q 5850 -500 5725 -650 
Q 5400 -325 5137 -87 
Q 4875 150 4525 350 
Q 4650 525 4775 725 
z
" transform="scale(0.015625)"/>
      <path id="SimHei-6d4b" d="M 4025 4725 
Q 4000 4475 4000 4000 
L 4000 2225 
Q 4000 1775 4025 1350 
L 3550 1350 
L 3550 4325 
L 2350 4325 
L 2350 1325 
L 1900 1325 
Q 1925 1775 1925 2225 
L 1925 4000 
Q 1925 4200 1900 4725 
L 4025 4725 
z
M 5900 5075 
Q 5875 4800 5875 4375 
L 5875 0 
Q 5875 -325 5650 -425 
Q 5425 -525 4975 -600 
Q 4925 -325 4775 -50 
Q 5125 -50 5262 -25 
Q 5400 0 5400 250 
L 5400 4375 
Q 5400 4775 5375 5075 
L 5900 5075 
z
M 3275 3725 
Q 3225 3400 3200 2325 
Q 3175 1250 2837 550 
Q 2500 -150 2075 -600 
Q 1850 -400 1600 -325 
Q 2200 250 2475 962 
Q 2750 1675 2762 2475 
Q 2775 3275 2725 3800 
Q 3000 3750 3275 3725 
z
M 4950 4275 
Q 4925 4000 4925 3575 
L 4925 1825 
Q 4925 1300 4950 850 
L 4450 850 
Q 4475 1150 4475 1825 
L 4475 3575 
Q 4475 4000 4450 4275 
L 4950 4275 
z
M 1700 1675 
Q 1375 1075 1112 487 
Q 850 -100 725 -400 
Q 500 -200 200 -25 
Q 475 300 762 850 
Q 1050 1400 1250 2000 
Q 1475 1825 1700 1675 
z
M 3400 1050 
Q 3800 650 4300 -125 
Q 4100 -225 3875 -450 
Q 3475 275 3025 750 
Q 3225 875 3400 1050 
z
M 600 3525 
Q 1125 3125 1500 2775 
Q 1300 2575 1150 2375 
Q 825 2775 300 3150 
Q 450 3300 600 3525 
z
M 1350 4000 
Q 950 4375 475 4675 
Q 625 4850 775 5050 
Q 1300 4700 1675 4375 
Q 1500 4250 1350 4000 
z
" transform="scale(0.015625)"/>
      <path id="SimHei-20" transform="scale(0.015625)"/>
      <path id="SimHei-28" d="M 2975 -200 
L 2700 -475 
Q 2075 125 1762 775 
Q 1450 1425 1450 2250 
Q 1450 3075 1762 3725 
Q 2075 4375 2700 5000 
L 2975 4725 
Q 2400 4175 2112 3587 
Q 1825 3000 1825 2250 
Q 1825 1500 2112 912 
Q 2400 325 2975 -200 
z
" transform="scale(0.015625)"/>
      <path id="SimHei-50" d="M 2950 3100 
Q 2950 2500 2600 2150 
Q 2250 1800 1625 1800 
L 900 1800 
L 900 125 
L 325 125 
L 325 4400 
L 1625 4400 
Q 2250 4400 2600 4050 
Q 2950 3700 2950 3100 
z
M 2375 3100 
Q 2375 3575 2150 3750 
Q 1925 3925 1475 3925 
L 900 3925 
L 900 2275 
L 1475 2275 
Q 1925 2275 2150 2450 
Q 2375 2625 2375 3100 
z
" transform="scale(0.015625)"/>
      <path id="SimHei-79" d="M 2900 2925 
L 1750 -100 
Q 1650 -450 1450 -625 
Q 1250 -800 950 -800 
Q 825 -800 712 -787 
Q 600 -775 500 -725 
L 500 -225 
Q 600 -275 700 -300 
Q 800 -325 875 -325 
Q 1075 -325 1150 -262 
Q 1225 -200 1300 25 
L 200 2925 
L 750 2925 
L 1550 725 
L 1575 725 
L 2350 2925 
L 2900 2925 
z
" transform="scale(0.015625)"/>
      <path id="SimHei-54" d="M 2850 3925 
L 1850 3925 
L 1850 125 
L 1275 125 
L 1275 3925 
L 275 3925 
L 275 4400 
L 2850 4400 
L 2850 3925 
z
" transform="scale(0.015625)"/>
      <path id="SimHei-6f" d="M 2925 1525 
Q 2925 875 2525 475 
Q 2125 75 1575 75 
Q 1025 75 625 475 
Q 225 875 225 1525 
Q 225 2175 625 2575 
Q 1025 2975 1575 2975 
Q 2125 2975 2525 2575 
Q 2925 2175 2925 1525 
z
M 2375 1525 
Q 2375 2025 2125 2275 
Q 1875 2525 1575 2525 
Q 1275 2525 1025 2275 
Q 775 2025 775 1525 
Q 775 1025 1025 775 
Q 1275 525 1575 525 
Q 1875 525 2125 775 
Q 2375 1025 2375 1525 
z
" transform="scale(0.015625)"/>
      <path id="SimHei-72" d="M 2500 2425 
Q 2025 2500 1700 2287 
Q 1375 2075 1150 1550 
L 1150 125 
L 650 125 
L 650 2925 
L 1150 2925 
L 1150 2200 
Q 1375 2600 1712 2787 
Q 2050 2975 2500 2975 
L 2500 2425 
z
" transform="scale(0.015625)"/>
      <path id="SimHei-63" d="M 2850 1250 
Q 2850 725 2487 400 
Q 2125 75 1575 75 
Q 1025 75 625 462 
Q 225 850 225 1525 
Q 225 2200 625 2587 
Q 1025 2975 1575 2975 
Q 2125 2975 2450 2687 
Q 2775 2400 2775 2000 
L 2225 2000 
Q 2200 2300 2012 2412 
Q 1825 2525 1575 2525 
Q 1275 2525 1025 2287 
Q 775 2050 775 1525 
Q 775 1000 1025 762 
Q 1275 525 1575 525 
Q 1900 525 2100 700 
Q 2300 875 2300 1250 
L 2850 1250 
z
" transform="scale(0.015625)"/>
      <path id="SimHei-68" d="M 2800 125 
L 2300 125 
L 2300 1925 
Q 2300 2225 2150 2400 
Q 2000 2575 1750 2575 
Q 1425 2575 1137 2237 
Q 850 1900 850 1400 
L 850 125 
L 350 125 
L 350 4400 
L 850 4400 
L 850 2400 
Q 1050 2675 1287 2825 
Q 1525 2975 1900 2975 
Q 2350 2975 2575 2725 
Q 2800 2475 2800 2100 
L 2800 125 
z
" transform="scale(0.015625)"/>
      <path id="SimHei-61" d="M 2875 125 
L 2275 125 
Q 2225 175 2200 262 
Q 2175 350 2175 475 
Q 2000 275 1750 175 
Q 1500 75 1225 75 
Q 825 75 550 275 
Q 275 475 275 850 
Q 275 1225 525 1450 
Q 775 1675 1300 1750 
Q 1650 1800 1912 1875 
Q 2175 1950 2175 2075 
Q 2175 2225 2062 2375 
Q 1950 2525 1575 2525 
Q 1275 2525 1137 2412 
Q 1000 2300 950 2100 
L 400 2100 
Q 450 2500 762 2737 
Q 1075 2975 1575 2975 
Q 2125 2975 2400 2725 
Q 2675 2475 2675 2025 
L 2675 650 
Q 2675 500 2725 375 
Q 2775 250 2875 125 
z
M 2175 1050 
L 2175 1550 
Q 2025 1500 1887 1462 
Q 1750 1425 1425 1375 
Q 1050 1325 937 1200 
Q 825 1075 825 900 
Q 825 750 937 637 
Q 1050 525 1275 525 
Q 1500 525 1762 650 
Q 2025 775 2175 1050 
z
" transform="scale(0.015625)"/>
      <path id="SimHei-6e" d="M 2800 125 
L 2300 125 
L 2300 1925 
Q 2300 2225 2150 2400 
Q 2000 2575 1750 2575 
Q 1425 2575 1137 2237 
Q 850 1900 850 1400 
L 850 125 
L 350 125 
L 350 2925 
L 850 2925 
L 850 2400 
Q 1050 2675 1287 2825 
Q 1525 2975 1900 2975 
Q 2350 2975 2575 2725 
Q 2800 2475 2800 2100 
L 2800 125 
z
" transform="scale(0.015625)"/>
      <path id="SimHei-73" d="M 2750 900 
Q 2750 500 2437 287 
Q 2125 75 1650 75 
Q 1050 75 725 312 
Q 400 550 400 1000 
L 900 1000 
Q 900 700 1112 600 
Q 1325 500 1625 500 
Q 1925 500 2075 612 
Q 2225 725 2225 900 
Q 2225 1025 2100 1150 
Q 1975 1275 1475 1350 
Q 900 1425 687 1637 
Q 475 1850 475 2200 
Q 475 2500 762 2737 
Q 1050 2975 1600 2975 
Q 2100 2975 2387 2750 
Q 2675 2525 2675 2150 
L 2175 2150 
Q 2175 2375 2012 2462 
Q 1850 2550 1600 2550 
Q 1275 2550 1137 2437 
Q 1000 2325 1000 2175 
Q 1000 2000 1125 1900 
Q 1250 1800 1650 1750 
Q 2300 1650 2525 1437 
Q 2750 1225 2750 900 
z
" transform="scale(0.015625)"/>
      <path id="SimHei-66" d="M 2850 3825 
Q 2725 3900 2550 3950 
Q 2375 4000 2100 4000 
Q 1825 4000 1725 3862 
Q 1625 3725 1625 3525 
L 1625 2925 
L 2650 2925 
L 2650 2525 
L 1625 2525 
L 1625 125 
L 1125 125 
L 1125 2525 
L 275 2525 
L 275 2925 
L 1125 2925 
L 1125 3500 
Q 1125 3950 1400 4200 
Q 1675 4450 2125 4450 
Q 2400 4450 2562 4412 
Q 2725 4375 2850 4325 
L 2850 3825 
z
" transform="scale(0.015625)"/>
      <path id="SimHei-6d" d="M 3050 125 
L 2550 125 
L 2550 2150 
Q 2550 2300 2500 2400 
Q 2450 2500 2300 2500 
Q 2125 2500 1975 2312 
Q 1825 2125 1825 1825 
L 1825 125 
L 1325 125 
L 1325 2150 
Q 1325 2300 1275 2400 
Q 1225 2500 1075 2500 
Q 900 2500 750 2312 
Q 600 2125 600 1825 
L 600 125 
L 100 125 
L 100 2925 
L 600 2925 
L 600 2550 
Q 725 2750 900 2862 
Q 1075 2975 1275 2975 
Q 1475 2975 1612 2862 
Q 1750 2750 1800 2550 
Q 1925 2750 2087 2862 
Q 2250 2975 2450 2975 
Q 2750 2975 2900 2812 
Q 3050 2650 3050 2350 
L 3050 125 
z
" transform="scale(0.015625)"/>
      <path id="SimHei-65" d="M 2850 1075 
Q 2800 625 2450 350 
Q 2100 75 1625 75 
Q 1025 75 637 462 
Q 250 850 250 1525 
Q 250 2200 637 2587 
Q 1025 2975 1625 2975 
Q 2150 2975 2487 2637 
Q 2825 2300 2825 1525 
L 800 1525 
Q 800 975 1037 750 
Q 1275 525 1625 525 
Q 1900 525 2075 662 
Q 2250 800 2300 1075 
L 2850 1075 
z
M 2250 1925 
Q 2200 2275 2025 2412 
Q 1850 2550 1575 2550 
Q 1325 2550 1125 2412 
Q 925 2275 825 1925 
L 2250 1925 
z
" transform="scale(0.015625)"/>
      <path id="SimHei-4c" d="M 2900 125 
L 300 125 
L 300 4400 
L 875 4400 
L 875 600 
L 2900 600 
L 2900 125 
z
" transform="scale(0.015625)"/>
      <path id="SimHei-53" d="M 2900 1325 
Q 2900 750 2537 412 
Q 2175 75 1550 75 
Q 925 75 575 425 
Q 225 775 225 1300 
L 225 1475 
L 800 1475 
L 800 1325 
Q 800 950 1025 750 
Q 1250 550 1550 550 
Q 1950 550 2137 762 
Q 2325 975 2325 1275 
Q 2325 1525 2100 1737 
Q 1875 1950 1450 2125 
Q 850 2350 587 2625 
Q 325 2900 325 3275 
Q 325 3800 687 4125 
Q 1050 4450 1550 4450 
Q 2200 4450 2487 4062 
Q 2775 3675 2775 3225 
L 2200 3225 
Q 2225 3500 2050 3725 
Q 1875 3950 1550 3950 
Q 1250 3950 1075 3787 
Q 900 3625 900 3350 
Q 900 3125 1037 2962 
Q 1175 2800 1750 2575 
Q 2300 2350 2600 2037 
Q 2900 1725 2900 1325 
z
" transform="scale(0.015625)"/>
      <path id="SimHei-4d" d="M 2925 125 
L 2425 125 
L 2425 3175 
L 2375 3175 
L 1775 125 
L 1375 125 
L 775 3175 
L 725 3175 
L 725 125 
L 225 125 
L 225 4400 
L 1000 4400 
L 1550 1575 
L 1600 1575 
L 2150 4400 
L 2925 4400 
L 2925 125 
z
" transform="scale(0.015625)"/>
      <path id="SimHei-29" d="M 1675 2250 
Q 1675 1425 1362 775 
Q 1050 125 425 -475 
L 150 -200 
Q 725 325 1012 912 
Q 1300 1500 1300 2250 
Q 1300 3000 1012 3587 
Q 725 4175 150 4725 
L 425 5000 
Q 1050 4375 1362 3725 
Q 1675 3075 1675 2250 
z
" transform="scale(0.015625)"/>
     </defs>
     <use xlink:href="#SimHei-5e73"/>
     <use xlink:href="#SimHei-53f0" x="100"/>
     <use xlink:href="#SimHei-60c5" x="200"/>
     <use xlink:href="#SimHei-611f" x="300"/>
     <use xlink:href="#SimHei-5f97" x="400"/>
     <use xlink:href="#SimHei-5206" x="500"/>
     <use xlink:href="#SimHei-53d8" x="600"/>
     <use xlink:href="#SimHei-5316" x="700"/>
     <use xlink:href="#SimHei-8d8b" x="800"/>
     <use xlink:href="#SimHei-52bf" x="900"/>
     <use xlink:href="#SimHei-53ca" x="1000"/>
     <use xlink:href="#SimHei-672a" x="1100"/>
     <use xlink:href="#SimHei-6765" x="1200"/>
     <use xlink:href="#SimHei-36" x="1300"/>
     <use xlink:href="#SimHei-30" x="1350"/>
     <use xlink:href="#SimHei-5929" x="1400"/>
     <use xlink:href="#SimHei-9884" x="1500"/>
     <use xlink:href="#SimHei-6d4b" x="1600"/>
     <use xlink:href="#SimHei-20" x="1700"/>
     <use xlink:href="#SimHei-28" x="1750"/>
     <use xlink:href="#SimHei-50" x="1800"/>
     <use xlink:href="#SimHei-79" x="1850"/>
     <use xlink:href="#SimHei-54" x="1900"/>
     <use xlink:href="#SimHei-6f" x="1950"/>
     <use xlink:href="#SimHei-72" x="2000"/>
     <use xlink:href="#SimHei-63" x="2050"/>
     <use xlink:href="#SimHei-68" x="2100"/>
     <use xlink:href="#SimHei-20" x="2150"/>
     <use xlink:href="#SimHei-54" x="2200"/>
     <use xlink:href="#SimHei-72" x="2250"/>
     <use xlink:href="#SimHei-61" x="2300"/>
     <use xlink:href="#SimHei-6e" x="2350"/>
     <use xlink:href="#SimHei-73" x="2400"/>
     <use xlink:href="#SimHei-66" x="2450"/>
     <use xlink:href="#SimHei-6f" x="2500"/>
     <use xlink:href="#SimHei-72" x="2550"/>
     <use xlink:href="#SimHei-6d" x="2600"/>
     <use xlink:href="#SimHei-65" x="2650"/>
     <use xlink:href="#SimHei-72" x="2700"/>
     <use xlink:href="#SimHei-2d" x="2750"/>
     <use xlink:href="#SimHei-4c" x="2800"/>
     <use xlink:href="#SimHei-53" x="2850"/>
     <use xlink:href="#SimHei-54" x="2900"/>
     <use xlink:href="#SimHei-4d" x="2950"/>
     <use xlink:href="#SimHei-29" x="3000"/>
    </g>
   </g>
   <g id="legend_1">
    <g id="patch_7">
     <path d="M 935.2 123.872187 
L 1062.2 123.872187 
Q 1064.2 123.872187 1064.2 121.872187 
L 1064.2 36.97375 
Q 1064.2 34.97375 1062.2 34.97375 
L 935.2 34.97375 
Q 933.2 34.97375 933.2 36.97375 
L 933.2 121.872187 
Q 933.2 123.872187 935.2 123.872187 
z
" style="fill: #ffffff; opacity: 0.8; stroke: #cccccc; stroke-linejoin: miter"/>
    </g>
    <g id="line2d_39">
     <path d="M 937.2 43.715937 
L 947.2 43.715937 
L 957.2 43.715937 
" style="fill: none; stroke: #1f77b4; stroke-width: 2; stroke-linecap: square"/>
    </g>
    <g id="text_20">
     <!-- 抖音 (dy) (历史) -->
     <g transform="translate(965.2 47.215937) scale(0.1 -0.1)">
      <defs>
       <path id="SimHei-6296" d="M 2625 2575 
Q 2600 2350 2675 2125 
Q 2425 2025 1875 1850 
L 1875 150 
Q 1900 -150 1687 -312 
Q 1475 -475 875 -600 
Q 800 -350 650 -50 
Q 1050 -25 1212 25 
Q 1375 75 1375 300 
L 1375 1700 
Q 1150 1625 450 1325 
Q 400 1500 250 1900 
Q 1050 2050 1375 2175 
L 1375 3375 
Q 925 3375 425 3350 
L 425 3825 
Q 925 3800 1375 3800 
Q 1375 4525 1350 5125 
L 1925 5125 
Q 1875 4625 1875 3800 
Q 2200 3800 2775 3825 
L 2775 3350 
Q 2225 3375 1875 3375 
L 1875 2300 
Q 2100 2375 2625 2575 
z
M 2475 1100 
Q 2800 1125 4675 1400 
L 4675 4450 
Q 4675 4925 4650 5225 
L 5200 5225 
Q 5175 4950 5175 4475 
L 5175 1475 
Q 5775 1575 6125 1650 
L 6150 1200 
Q 5825 1150 5175 1025 
Q 5175 175 5200 -625 
L 4650 -625 
Q 4675 -25 4675 950 
Q 4275 900 2625 575 
L 2475 1100 
z
M 3575 4750 
Q 3675 4600 4250 3800 
Q 4125 3750 3775 3475 
Q 3650 3725 3150 4450 
Q 3375 4575 3575 4750 
z
M 3425 3025 
Q 3925 2400 4100 2175 
Q 3900 2025 3675 1825 
Q 3550 2050 3025 2675 
Q 3200 2825 3425 3025 
z
" transform="scale(0.015625)"/>
       <path id="SimHei-97f3" d="M 5100 2100 
Q 5075 1725 5075 1350 
L 5075 375 
Q 5075 -125 5100 -600 
L 4550 -600 
L 4550 -250 
L 1825 -250 
L 1825 -625 
L 1300 -625 
Q 1325 -100 1325 500 
L 1325 1350 
Q 1325 1675 1300 2100 
L 5100 2100 
z
M 4150 4050 
Q 4475 3900 4725 3825 
Q 4550 3550 4462 3387 
Q 4375 3225 4250 2975 
L 5050 2975 
Q 5550 2975 6000 3000 
L 6000 2575 
Q 5550 2600 5050 2600 
L 1375 2600 
Q 875 2600 425 2575 
L 425 3000 
Q 900 2975 1375 2975 
L 2100 2975 
Q 1900 3500 1650 3825 
Q 1875 3950 2075 4075 
Q 2400 3575 2625 3200 
Q 2450 3100 2250 2975 
L 3750 2975 
Q 4050 3650 4150 4050 
z
M 3250 5275 
Q 3425 4825 3475 4525 
L 4750 4525 
Q 5100 4525 5575 4550 
L 5575 4125 
Q 5075 4150 4750 4150 
L 1625 4150 
Q 1150 4150 700 4125 
L 700 4550 
Q 1150 4525 1625 4525 
L 2900 4525 
Q 2875 4825 2700 5150 
Q 2975 5200 3250 5275 
z
M 4550 125 
L 4550 725 
L 1825 725 
L 1825 125 
L 4550 125 
z
M 4550 1100 
L 4550 1700 
L 1825 1700 
L 1825 1100 
L 4550 1100 
z
" transform="scale(0.015625)"/>
       <path id="SimHei-64" d="M 2750 125 
L 2250 125 
L 2250 500 
Q 2100 275 1900 175 
Q 1700 75 1425 75 
Q 925 75 575 437 
Q 225 800 225 1525 
Q 225 2250 575 2625 
Q 925 3000 1425 3000 
Q 1700 3000 1900 2887 
Q 2100 2775 2250 2550 
L 2250 4400 
L 2750 4400 
L 2750 125 
z
M 2250 1525 
Q 2250 2000 2037 2275 
Q 1825 2550 1525 2550 
Q 1150 2550 962 2275 
Q 775 2000 775 1525 
Q 775 1050 962 787 
Q 1150 525 1525 525 
Q 1825 525 2037 787 
Q 2250 1050 2250 1525 
z
" transform="scale(0.015625)"/>
       <path id="SimHei-5386" d="M 3725 2500 
Q 3625 1775 3487 1337 
Q 3350 900 3150 562 
Q 2950 225 2687 -62 
Q 2425 -350 2075 -625 
Q 1825 -350 1500 -225 
Q 2075 75 2387 412 
Q 2700 750 2875 1125 
Q 3050 1500 3112 1787 
Q 3175 2075 3225 2500 
L 2725 2500 
Q 2125 2500 1900 2475 
L 1900 2950 
Q 2375 2925 2675 2925 
L 3250 2925 
Q 3275 3250 3275 3550 
L 3275 4275 
Q 3625 4175 3900 4150 
Q 3825 3775 3800 3512 
Q 3775 3250 3750 2925 
L 5650 2925 
Q 5600 2550 5550 1850 
Q 5500 1150 5475 687 
Q 5450 225 5375 -50 
Q 5300 -325 4987 -412 
Q 4675 -500 4300 -550 
Q 4225 -250 4050 100 
Q 4575 75 4725 125 
Q 4875 175 4912 562 
Q 4950 950 5000 1475 
Q 5050 2000 5075 2500 
L 3725 2500 
z
M 800 -675 
Q 550 -500 225 -400 
Q 525 0 662 412 
Q 800 825 900 1412 
Q 1000 2000 1000 2725 
L 1000 3950 
Q 1000 4450 950 4825 
L 4825 4825 
Q 5375 4825 5675 4850 
L 5675 4375 
Q 5425 4400 5000 4400 
L 1500 4400 
Q 1500 2800 1487 2287 
Q 1475 1775 1412 1275 
Q 1350 775 1262 450 
Q 1175 125 1062 -162 
Q 950 -450 800 -675 
z
" transform="scale(0.015625)"/>
       <path id="SimHei-53f2" d="M 3000 4225 
Q 3000 4975 2950 5250 
Q 3350 5200 3625 5175 
Q 3525 4950 3525 4225 
L 5500 4225 
Q 5475 3775 5475 3175 
Q 5475 2600 5500 2150 
L 3500 2150 
Q 3450 1750 3362 1362 
Q 3275 975 3125 700 
Q 3450 450 3875 325 
Q 4300 200 4750 150 
Q 5200 100 6175 125 
Q 5900 -125 5850 -425 
Q 5175 -425 4700 -350 
Q 4225 -275 3787 -150 
Q 3350 -25 2775 325 
Q 2100 -150 1562 -325 
Q 1025 -500 650 -575 
Q 525 -250 275 -75 
Q 750 -50 1350 125 
Q 1950 300 2325 575 
Q 1575 1250 1225 1800 
Q 1525 1825 1750 1950 
Q 2275 1300 2675 975 
Q 2825 1275 2887 1562 
Q 2950 1850 2975 2150 
L 900 2150 
Q 925 2600 925 3175 
Q 925 3775 900 4225 
L 3000 4225 
z
M 3000 2575 
L 3000 3800 
L 1450 3800 
L 1450 2575 
L 3000 2575 
z
M 4950 2575 
L 4950 3800 
L 3525 3800 
L 3525 2575 
L 4950 2575 
z
" transform="scale(0.015625)"/>
      </defs>
      <use xlink:href="#SimHei-6296"/>
      <use xlink:href="#SimHei-97f3" x="100"/>
      <use xlink:href="#SimHei-20" x="200"/>
      <use xlink:href="#SimHei-28" x="250"/>
      <use xlink:href="#SimHei-64" x="300"/>
      <use xlink:href="#SimHei-79" x="350"/>
      <use xlink:href="#SimHei-29" x="400"/>
      <use xlink:href="#SimHei-20" x="450"/>
      <use xlink:href="#SimHei-28" x="500"/>
      <use xlink:href="#SimHei-5386" x="550"/>
      <use xlink:href="#SimHei-53f2" x="650"/>
      <use xlink:href="#SimHei-29" x="750"/>
     </g>
    </g>
    <g id="line2d_40">
     <path d="M 937.2 57.97375 
L 947.2 57.97375 
L 957.2 57.97375 
" style="fill: none; stroke: #ff7f0e; stroke-width: 2; stroke-linecap: square"/>
    </g>
    <g id="text_21">
     <!-- 小红书 (xhs) (历史) -->
     <g transform="translate(965.2 61.47375) scale(0.1 -0.1)">
      <defs>
       <path id="SimHei-5c0f" d="M 3500 5150 
Q 3475 4800 3475 4200 
L 3475 175 
Q 3475 -300 3225 -425 
Q 2975 -550 2375 -600 
Q 2325 -300 2150 -25 
Q 2700 -25 2837 0 
Q 2975 25 2975 300 
L 2975 4200 
Q 2975 4650 2950 5150 
L 3500 5150 
z
M 2075 3400 
Q 1850 2775 1550 1962 
Q 1250 1150 1025 750 
Q 775 950 500 1000 
Q 925 1750 1175 2487 
Q 1425 3225 1500 3575 
Q 1800 3425 2075 3400 
z
M 4675 3600 
Q 5675 1800 5875 1150 
Q 5625 1100 5375 925 
Q 5000 2000 4225 3325 
Q 4425 3425 4675 3600 
z
" transform="scale(0.015625)"/>
       <path id="SimHei-7ea2" d="M 4975 4375 
Q 5400 4375 5850 4400 
L 5850 3950 
Q 5400 3975 4975 3975 
L 4600 3975 
L 4600 175 
L 5125 175 
Q 5550 175 6025 200 
L 6025 -275 
Q 5550 -250 5125 -250 
L 3600 -250 
Q 3225 -250 2750 -275 
L 2750 200 
Q 3225 175 3625 175 
L 4125 175 
L 4125 3975 
L 3850 3975 
Q 3375 3975 2950 3950 
L 2950 4400 
Q 3400 4375 3800 4375 
L 4975 4375 
z
M 2775 1775 
Q 2725 1525 2725 1350 
Q 1475 1175 1200 1112 
Q 925 1050 675 975 
Q 575 1250 475 1425 
Q 775 1550 1062 1887 
Q 1350 2225 1700 2750 
Q 1450 2725 1125 2700 
Q 800 2675 475 2575 
Q 375 2825 275 3050 
Q 500 3075 900 3737 
Q 1300 4400 1525 5100 
Q 1825 4925 2050 4850 
Q 1850 4600 1625 4187 
Q 1400 3775 925 3075 
Q 1525 3100 1950 3125 
Q 2275 3700 2375 3975 
Q 2550 3825 2850 3650 
Q 2700 3475 2412 3037 
Q 2125 2600 1300 1550 
Q 2025 1650 2775 1775 
z
M 2825 750 
Q 2825 550 2850 300 
Q 1500 -50 1187 -162 
Q 875 -275 625 -375 
Q 525 -50 400 175 
Q 825 250 1337 362 
Q 1850 475 2825 750 
z
" transform="scale(0.015625)"/>
       <path id="SimHei-4e66" d="M 2575 3900 
Q 2575 4750 2550 5200 
L 3125 5200 
Q 3075 4825 3075 3900 
L 4975 3900 
Q 4925 3675 4800 2200 
L 5750 2200 
Q 5625 575 5550 337 
Q 5475 100 5162 12 
Q 4850 -75 4450 -125 
Q 4375 275 4225 450 
Q 4675 425 4887 475 
Q 5100 525 5125 800 
L 5200 1725 
L 3075 1725 
L 3075 400 
Q 3075 -100 3100 -575 
L 2500 -575 
Q 2575 -125 2575 375 
L 2575 1725 
L 1400 1725 
Q 1050 1725 450 1700 
L 450 2225 
Q 975 2200 1450 2200 
L 2575 2200 
L 2575 3475 
L 1600 3475 
Q 1450 3475 925 3450 
L 925 3925 
Q 1425 3900 1775 3900 
L 2575 3900 
z
M 4300 2200 
L 4400 3475 
L 3075 3475 
L 3075 2200 
L 4300 2200 
z
M 4625 5200 
Q 4950 4925 5225 4662 
Q 5500 4400 5775 4100 
Q 5475 3850 5375 3750 
Q 5150 4100 4250 4875 
Q 4500 5075 4625 5200 
z
" transform="scale(0.015625)"/>
       <path id="SimHei-78" d="M 2875 125 
L 2275 125 
L 1550 1200 
L 825 125 
L 225 125 
L 1250 1550 
L 300 2925 
L 900 2925 
L 1550 1875 
L 2200 2925 
L 2800 2925 
L 1850 1550 
L 2875 125 
z
" transform="scale(0.015625)"/>
      </defs>
      <use xlink:href="#SimHei-5c0f"/>
      <use xlink:href="#SimHei-7ea2" x="100"/>
      <use xlink:href="#SimHei-4e66" x="200"/>
      <use xlink:href="#SimHei-20" x="300"/>
      <use xlink:href="#SimHei-28" x="350"/>
      <use xlink:href="#SimHei-78" x="400"/>
      <use xlink:href="#SimHei-68" x="450"/>
      <use xlink:href="#SimHei-73" x="500"/>
      <use xlink:href="#SimHei-29" x="550"/>
      <use xlink:href="#SimHei-20" x="600"/>
      <use xlink:href="#SimHei-28" x="650"/>
      <use xlink:href="#SimHei-5386" x="700"/>
      <use xlink:href="#SimHei-53f2" x="800"/>
      <use xlink:href="#SimHei-29" x="900"/>
     </g>
    </g>
    <g id="line2d_41">
     <path d="M 937.2 72.231562 
L 947.2 72.231562 
L 957.2 72.231562 
" style="fill: none; stroke: #008000; stroke-width: 2; stroke-linecap: square"/>
    </g>
    <g id="text_22">
     <!-- 贴吧 (tieba) (历史) -->
     <g transform="translate(965.2 75.731562) scale(0.1 -0.1)">
      <defs>
       <path id="SimHei-8d34" d="M 4650 5225 
Q 4625 4925 4625 4075 
Q 5650 4075 6125 4100 
L 6125 3625 
Q 5650 3650 4625 3650 
L 4625 2300 
L 5900 2300 
Q 5875 1900 5875 925 
Q 5875 -50 5900 -525 
L 5400 -525 
L 5400 -25 
L 3600 -25 
L 3600 -625 
L 3125 -625 
Q 3150 -125 3150 850 
Q 3150 1850 3125 2300 
L 4175 2300 
L 4175 4450 
Q 4175 4950 4150 5225 
L 4650 5225 
z
M 2800 4825 
Q 2775 4275 2775 3075 
Q 2775 1875 2800 1175 
L 2300 1175 
L 2300 4425 
L 1050 4425 
L 1050 1100 
L 550 1100 
Q 575 1825 575 3050 
Q 575 4275 550 4825 
L 2800 4825 
z
M 5400 375 
L 5400 1900 
L 3600 1900 
L 3600 375 
L 5400 375 
z
M 1975 3950 
Q 1900 3600 1887 3087 
Q 1875 2575 1812 1962 
Q 1750 1350 1512 675 
Q 1275 0 700 -650 
Q 500 -425 250 -350 
Q 850 150 1125 887 
Q 1400 1625 1437 2475 
Q 1475 3325 1450 4025 
Q 1700 3975 1975 3950 
z
M 2050 1000 
Q 2475 675 2900 75 
Q 2675 -75 2525 -250 
Q 2175 275 1725 650 
Q 1925 800 2050 1000 
z
" transform="scale(0.015625)"/>
       <path id="SimHei-5427" d="M 5725 4800 
Q 5725 4475 5712 3250 
Q 5700 2025 5725 1675 
L 5250 1675 
L 5250 2025 
L 3200 2025 
L 3200 500 
Q 3200 -75 3675 -100 
L 5025 -100 
Q 5300 -100 5412 50 
Q 5525 200 5575 775 
Q 5825 550 6150 500 
Q 5975 -150 5837 -312 
Q 5700 -475 5375 -475 
L 3575 -475 
Q 2775 -450 2750 325 
L 2750 3800 
Q 2750 4475 2725 4800 
L 5725 4800 
z
M 2150 4550 
Q 2125 4325 2125 2800 
Q 2125 1275 2150 700 
L 1700 700 
L 1700 1175 
L 1000 1175 
L 1000 250 
L 525 250 
Q 550 775 550 2450 
Q 550 4125 525 4550 
L 2150 4550 
z
M 1700 1575 
L 1700 4150 
L 1000 4150 
L 1000 1575 
L 1700 1575 
z
M 4025 2425 
L 4025 4450 
L 3200 4450 
L 3200 2425 
L 4025 2425 
z
M 5250 2425 
L 5250 4450 
L 4475 4450 
L 4475 2425 
L 5250 2425 
z
" transform="scale(0.015625)"/>
       <path id="SimHei-74" d="M 2750 200 
Q 2625 150 2462 112 
Q 2300 75 2025 75 
Q 1575 75 1300 325 
Q 1025 575 1025 1025 
L 1025 2525 
L 175 2525 
L 175 2925 
L 1025 2925 
L 1025 3900 
L 1525 3900 
L 1525 2925 
L 2550 2925 
L 2550 2525 
L 1525 2525 
L 1525 1000 
Q 1525 800 1625 662 
Q 1725 525 2000 525 
Q 2275 525 2450 575 
Q 2625 625 2750 700 
L 2750 200 
z
" transform="scale(0.015625)"/>
       <path id="SimHei-69" d="M 1800 3725 
L 1300 3725 
L 1300 4375 
L 1800 4375 
L 1800 3725 
z
M 1800 125 
L 1300 125 
L 1300 2925 
L 1800 2925 
L 1800 125 
z
" transform="scale(0.015625)"/>
       <path id="SimHei-62" d="M 2825 1525 
Q 2825 800 2475 437 
Q 2125 75 1625 75 
Q 1350 75 1150 175 
Q 950 275 800 500 
L 800 125 
L 300 125 
L 300 4400 
L 800 4400 
L 800 2550 
Q 950 2775 1150 2887 
Q 1350 3000 1625 3000 
Q 2125 3000 2475 2625 
Q 2825 2250 2825 1525 
z
M 2275 1525 
Q 2275 2000 2087 2275 
Q 1900 2550 1525 2550 
Q 1225 2550 1012 2275 
Q 800 2000 800 1525 
Q 800 1050 1012 787 
Q 1225 525 1525 525 
Q 1900 525 2087 787 
Q 2275 1050 2275 1525 
z
" transform="scale(0.015625)"/>
      </defs>
      <use xlink:href="#SimHei-8d34"/>
      <use xlink:href="#SimHei-5427" x="100"/>
      <use xlink:href="#SimHei-20" x="200"/>
      <use xlink:href="#SimHei-28" x="250"/>
      <use xlink:href="#SimHei-74" x="300"/>
      <use xlink:href="#SimHei-69" x="350"/>
      <use xlink:href="#SimHei-65" x="400"/>
      <use xlink:href="#SimHei-62" x="450"/>
      <use xlink:href="#SimHei-61" x="500"/>
      <use xlink:href="#SimHei-29" x="550"/>
      <use xlink:href="#SimHei-20" x="600"/>
      <use xlink:href="#SimHei-28" x="650"/>
      <use xlink:href="#SimHei-5386" x="700"/>
      <use xlink:href="#SimHei-53f2" x="800"/>
      <use xlink:href="#SimHei-29" x="900"/>
     </g>
    </g>
    <g id="line2d_42">
     <path d="M 937.2 86.72375 
L 947.2 86.72375 
L 957.2 86.72375 
" style="fill: none; stroke-dasharray: 7.4,3.2; stroke-dashoffset: 0; stroke: #1f77b4; stroke-width: 2"/>
    </g>
    <g id="text_23">
     <!-- 抖音 (dy) (预测) -->
     <g transform="translate(965.2 90.22375) scale(0.1 -0.1)">
      <use xlink:href="#SimHei-6296"/>
      <use xlink:href="#SimHei-97f3" x="100"/>
      <use xlink:href="#SimHei-20" x="200"/>
      <use xlink:href="#SimHei-28" x="250"/>
      <use xlink:href="#SimHei-64" x="300"/>
      <use xlink:href="#SimHei-79" x="350"/>
      <use xlink:href="#SimHei-29" x="400"/>
      <use xlink:href="#SimHei-20" x="450"/>
      <use xlink:href="#SimHei-28" x="500"/>
      <use xlink:href="#SimHei-9884" x="550"/>
      <use xlink:href="#SimHei-6d4b" x="650"/>
      <use xlink:href="#SimHei-29" x="750"/>
     </g>
    </g>
    <g id="line2d_43">
     <path d="M 937.2 100.903437 
L 947.2 100.903437 
L 957.2 100.903437 
" style="fill: none; stroke-dasharray: 7.4,3.2; stroke-dashoffset: 0; stroke: #ff7f0e; stroke-width: 2"/>
    </g>
    <g id="text_24">
     <!-- 小红书 (xhs) (预测) -->
     <g transform="translate(965.2 104.403437) scale(0.1 -0.1)">
      <use xlink:href="#SimHei-5c0f"/>
      <use xlink:href="#SimHei-7ea2" x="100"/>
      <use xlink:href="#SimHei-4e66" x="200"/>
      <use xlink:href="#SimHei-20" x="300"/>
      <use xlink:href="#SimHei-28" x="350"/>
      <use xlink:href="#SimHei-78" x="400"/>
      <use xlink:href="#SimHei-68" x="450"/>
      <use xlink:href="#SimHei-73" x="500"/>
      <use xlink:href="#SimHei-29" x="550"/>
      <use xlink:href="#SimHei-20" x="600"/>
      <use xlink:href="#SimHei-28" x="650"/>
      <use xlink:href="#SimHei-9884" x="700"/>
      <use xlink:href="#SimHei-6d4b" x="800"/>
      <use xlink:href="#SimHei-29" x="900"/>
     </g>
    </g>
    <g id="line2d_44">
     <path d="M 937.2 115.122187 
L 947.2 115.122187 
L 957.2 115.122187 
" style="fill: none; stroke-dasharray: 7.4,3.2; stroke-dashoffset: 0; stroke: #008000; stroke-width: 2"/>
    </g>
    <g id="text_25">
     <!-- 贴吧 (tieba) (预测) -->
     <g transform="translate(965.2 118.622187) scale(0.1 -0.1)">
      <use xlink:href="#SimHei-8d34"/>
      <use xlink:href="#SimHei-5427" x="100"/>
      <use xlink:href="#SimHei-20" x="200"/>
      <use xlink:href="#SimHei-28" x="250"/>
      <use xlink:href="#SimHei-74" x="300"/>
      <use xlink:href="#SimHei-69" x="350"/>
      <use xlink:href="#SimHei-65" x="400"/>
      <use xlink:href="#SimHei-62" x="450"/>
      <use xlink:href="#SimHei-61" x="500"/>
      <use xlink:href="#SimHei-29" x="550"/>
      <use xlink:href="#SimHei-20" x="600"/>
      <use xlink:href="#SimHei-28" x="650"/>
      <use xlink:href="#SimHei-9884" x="700"/>
      <use xlink:href="#SimHei-6d4b" x="800"/>
      <use xlink:href="#SimHei-29" x="900"/>
     </g>
    </g>
   </g>
  </g>
 </g>
 <defs>
  <clipPath id="p56475ffb0a">
   <rect x="53.435" y="29.97375" width="1015.765" height="480.991291"/>
  </clipPath>
 </defs>
</svg>
